<svg width="60" height="60" viewBox="0 0 60 60" fill="none" xmlns="http://www.w3.org/2000/svg">
<path d="M10 50V48.0769H15V13.4615C15 12.5008 15.3367 11.6837 16.0102 11.0102C16.6837 10.3367 17.5008 10 18.4615 10H41.5385C42.4992 10 43.3163 10.3367 43.9898 11.0102C44.6633 11.6837 45 12.5008 45 13.4615V48.0769H50V50H10ZM16.9231 48.0769H43.0769V13.4615C43.0769 13.0769 42.9167 12.7244 42.5962 12.4038C42.2756 12.0833 41.9231 11.9231 41.5385 11.9231H18.4615C18.0769 11.9231 17.7244 12.0833 17.4038 12.4038C17.0833 12.7244 16.9231 13.0769 16.9231 13.4615V48.0769ZM24.2259 31.6491C24.7319 31.6491 25.1485 31.4855 25.4756 31.1583C25.8028 30.8311 25.9664 30.4146 25.9664 29.9086C25.9664 29.4027 25.8028 28.9862 25.4756 28.659C25.1485 28.3318 24.7319 28.1683 24.2259 28.1683C23.72 28.1683 23.3035 28.3318 22.9763 28.659C22.6491 28.9862 22.4856 29.4027 22.4856 29.9086C22.4856 30.4146 22.6491 30.8311 22.9763 31.1583C23.3035 31.4855 23.72 31.6491 24.2259 31.6491Z" fill="#FF4E00"/>
</svg>
