<svg width="245" height="160" viewBox="0 0 245 160" fill="none" xmlns="http://www.w3.org/2000/svg">
<path d="M79.8585 106.967C79.3204 106.967 78.7876 106.861 78.2906 106.654C77.7937 106.447 77.3421 106.144 76.9619 105.762C76.5817 105.38 76.2801 104.927 76.0745 104.428C75.869 103.93 75.7633 103.395 75.7637 102.856V4.35188C75.7633 3.81229 75.869 3.27791 76.0745 2.77925C76.2801 2.28059 76.5817 1.82742 76.9619 1.44562C77.3421 1.06382 77.7937 0.76086 78.2906 0.554039C78.7876 0.347218 79.3204 0.240587 79.8585 0.240234H216.986C217.524 0.240587 218.057 0.347218 218.554 0.554039C219.051 0.76086 219.502 1.06382 219.882 1.44562C220.263 1.82742 220.564 2.28059 220.77 2.77925C220.975 3.27791 221.081 3.81229 221.081 4.35188V102.304C221.081 103.54 220.591 104.725 219.719 105.599C218.848 106.473 217.666 106.964 216.433 106.964L79.8585 106.967Z" fill="white"/>
<path d="M216.436 107.166H79.858C78.7198 107.164 77.629 106.709 76.8249 105.901C76.0207 105.094 75.5688 103.999 75.5684 102.858V4.35373C75.5688 3.21235 76.0207 2.11775 76.8249 1.31C77.629 0.502247 78.7198 0.0472947 79.858 0.0449219H216.985C218.123 0.0472947 219.214 0.502247 220.018 1.31C220.823 2.11775 221.274 3.21235 221.275 4.35373V102.306C221.274 103.593 220.764 104.828 219.857 105.739C218.951 106.65 217.72 107.163 216.436 107.166ZM79.858 0.440135C78.8246 0.442981 77.8344 0.856475 77.1044 1.59003C76.3744 2.32359 75.9641 3.31739 75.9634 4.35373V102.858C75.9638 103.895 76.3745 104.889 77.1053 105.623C77.8361 106.357 78.8274 106.77 79.8616 106.772H216.436C217.617 106.77 218.748 106.299 219.582 105.461C220.416 104.624 220.884 103.489 220.885 102.306V4.35373C220.884 3.31646 220.473 2.32185 219.742 1.58814C219.011 0.854426 218.02 0.441559 216.985 0.440135H79.858Z" fill="#000032"/>
<path d="M212.796 54.1287H173.052C173.026 54.1288 173.001 54.1238 172.977 54.114C172.953 54.1041 172.931 54.0896 172.913 54.0712C172.895 54.0529 172.88 54.0311 172.87 54.0072C172.86 53.9832 172.855 53.9575 172.855 53.9316V28.914C172.855 28.888 172.86 28.8623 172.87 28.8384C172.88 28.8144 172.895 28.7926 172.913 28.7743C172.931 28.7559 172.953 28.7414 172.977 28.7316C173.001 28.7217 173.026 28.7167 173.052 28.7168H212.796C212.821 28.7167 212.847 28.7217 212.871 28.7316C212.895 28.7414 212.917 28.7559 212.935 28.7743C212.953 28.7926 212.968 28.8144 212.977 28.8384C212.987 28.8623 212.992 28.888 212.992 28.914V53.9316C212.992 53.9575 212.987 53.9832 212.977 54.0072C212.968 54.0311 212.953 54.0529 212.935 54.0712C212.917 54.0896 212.895 54.1041 212.871 54.114C212.847 54.1238 212.821 54.1288 212.796 54.1287ZM173.249 53.7344H212.599V29.1111H173.249V53.7344Z" fill="#000032"/>
<path d="M212.796 54.1287C212.759 54.1287 212.723 54.119 212.691 54.0997L172.948 29.0812C172.926 29.0675 172.907 29.0495 172.892 29.0284C172.877 29.0073 172.866 28.9834 172.86 28.9581C172.855 28.9329 172.854 28.9067 172.858 28.8812C172.863 28.8556 172.872 28.8312 172.886 28.8092C172.899 28.7873 172.917 28.7683 172.938 28.7533C172.959 28.7383 172.983 28.7276 173.008 28.7218C173.033 28.716 173.06 28.7152 173.085 28.7196C173.111 28.7239 173.135 28.7332 173.157 28.747L212.9 53.7655C212.936 53.7883 212.964 53.8222 212.979 53.8621C212.994 53.902 212.996 53.9457 212.984 53.9868C212.972 54.0278 212.948 54.0639 212.914 54.0896C212.88 54.1153 212.838 54.1286 212.796 54.1287Z" fill="#000032"/>
<path d="M173.054 54.1293C173.011 54.1292 172.97 54.1153 172.936 54.0896C172.902 54.0639 172.877 54.0278 172.865 53.9868C172.853 53.9457 172.855 53.902 172.87 53.8621C172.885 53.8222 172.913 53.7883 172.949 53.7655L212.695 28.747C212.739 28.7192 212.793 28.7101 212.844 28.7218C212.895 28.7335 212.939 28.7649 212.966 28.8092C212.994 28.8536 213.003 28.9071 212.992 28.9581C212.98 29.0092 212.949 29.0534 212.904 29.0812L173.158 54.0998C173.127 54.1189 173.09 54.1291 173.054 54.1293Z" fill="#000032"/>
<path d="M123.792 54.1287H84.0482C83.996 54.1287 83.946 54.108 83.9091 54.071C83.8723 54.034 83.8516 53.9839 83.8516 53.9316V28.914C83.8516 28.8617 83.8723 28.8115 83.9091 28.7745C83.946 28.7376 83.996 28.7168 84.0482 28.7168H123.792C123.818 28.7167 123.843 28.7217 123.867 28.7316C123.891 28.7414 123.913 28.7559 123.931 28.7743C123.949 28.7926 123.964 28.8144 123.974 28.8384C123.983 28.8623 123.988 28.888 123.988 28.914V53.9316C123.988 53.9575 123.983 53.9832 123.974 54.0072C123.964 54.0311 123.949 54.0529 123.931 54.0712C123.913 54.0896 123.891 54.1041 123.867 54.114C123.843 54.1238 123.818 54.1288 123.792 54.1287ZM84.2448 53.7344H123.597V29.1111H84.2448V53.7344Z" fill="#000032"/>
<path d="M123.792 54.1287C123.755 54.1287 123.719 54.119 123.687 54.0997L83.9438 29.0812C83.9219 29.0675 83.9029 29.0495 83.8879 29.0284C83.873 29.0073 83.8623 28.9834 83.8565 28.9581C83.8508 28.9329 83.85 28.9067 83.8543 28.8812C83.8586 28.8556 83.8679 28.8312 83.8816 28.8092C83.8954 28.7873 83.9133 28.7683 83.9343 28.7533C83.9554 28.7383 83.9792 28.7276 84.0044 28.7218C84.0296 28.716 84.0557 28.7152 84.0811 28.7196C84.1066 28.7239 84.131 28.7332 84.1529 28.747L123.896 53.7655C123.932 53.7883 123.96 53.8222 123.975 53.8621C123.99 53.902 123.992 53.9457 123.98 53.9868C123.969 54.0278 123.944 54.0639 123.91 54.0896C123.876 54.1153 123.834 54.1286 123.792 54.1287Z" fill="#000032"/>
<path d="M84.0482 54.1287C84.0056 54.1286 83.9638 54.1153 83.9298 54.0896C83.8958 54.0639 83.871 54.0278 83.8593 53.9868C83.8475 53.9457 83.8493 53.902 83.8644 53.8621C83.8795 53.8222 83.9072 53.7883 83.9432 53.7655L123.686 28.747C123.708 28.7332 123.732 28.7239 123.758 28.7196C123.783 28.7152 123.809 28.716 123.834 28.7218C123.859 28.7276 123.883 28.7383 123.904 28.7533C123.925 28.7683 123.943 28.7873 123.957 28.8092C123.971 28.8312 123.98 28.8556 123.984 28.8812C123.989 28.9067 123.988 28.9329 123.982 28.9581C123.976 28.9834 123.966 29.0073 123.951 29.0284C123.936 29.0495 123.917 29.0675 123.895 29.0812L84.1523 54.0997C84.1208 54.119 84.0851 54.1287 84.0482 54.1287Z" fill="#000032"/>
<path d="M212.798 22.5828H84.0482C83.996 22.5828 83.946 22.562 83.9091 22.525C83.8723 22.4881 83.8516 22.4379 83.8516 22.3856V9.31044C83.8516 9.25815 83.8723 9.208 83.9091 9.17103C83.946 9.13406 83.996 9.11328 84.0482 9.11328H212.798C212.824 9.11316 212.85 9.11818 212.873 9.12805C212.897 9.13792 212.919 9.15243 212.937 9.17077C212.956 9.1891 212.97 9.21088 212.98 9.23485C212.99 9.25883 212.995 9.28452 212.995 9.31044V22.3865C212.995 22.4124 212.99 22.438 212.98 22.4618C212.97 22.4857 212.955 22.5074 212.937 22.5256C212.919 22.5439 212.897 22.5583 212.873 22.5681C212.849 22.5779 212.824 22.5829 212.798 22.5828ZM84.2448 22.1885H212.601V9.5076H84.2448V22.1885Z" fill="#000032"/>
<path d="M195.014 17.749C196.131 17.749 197.037 16.8398 197.037 15.7182C197.037 14.5967 196.131 13.6875 195.014 13.6875C193.896 13.6875 192.99 14.5967 192.99 15.7182C192.99 16.8398 193.896 17.749 195.014 17.749Z" fill="#FFECE3"/>
<path d="M200.914 17.749C202.031 17.749 202.937 16.8398 202.937 15.7182C202.937 14.5967 202.031 13.6875 200.914 13.6875C199.796 13.6875 198.891 14.5967 198.891 15.7182C198.891 16.8398 199.796 17.749 200.914 17.749Z" fill="#FFECE3"/>
<path d="M168.294 54.1287H128.55C128.524 54.1288 128.499 54.1238 128.475 54.114C128.451 54.1041 128.429 54.0896 128.411 54.0712C128.393 54.0529 128.378 54.0311 128.368 54.0072C128.358 53.9832 128.353 53.9575 128.354 53.9316V28.914C128.353 28.888 128.358 28.8623 128.368 28.8384C128.378 28.8144 128.393 28.7926 128.411 28.7743C128.429 28.7559 128.451 28.7414 128.475 28.7316C128.499 28.7217 128.524 28.7167 128.55 28.7168H168.294C168.319 28.7167 168.345 28.7217 168.369 28.7316C168.393 28.7414 168.415 28.7559 168.433 28.7743C168.451 28.7926 168.466 28.8144 168.475 28.8384C168.485 28.8623 168.49 28.888 168.49 28.914V53.9316C168.49 53.9575 168.485 53.9832 168.475 54.0072C168.466 54.0311 168.451 54.0529 168.433 54.0712C168.415 54.0896 168.393 54.1041 168.369 54.114C168.345 54.1238 168.319 54.1288 168.294 54.1287ZM128.747 53.7344H168.101V29.1111H128.747V53.7344Z" fill="#000032"/>
<path d="M168.294 54.1287C168.257 54.1287 168.221 54.119 168.189 54.0998L128.446 29.0812C128.402 29.0534 128.37 29.0092 128.358 28.9581C128.347 28.9071 128.356 28.8536 128.384 28.8092C128.411 28.7649 128.455 28.7335 128.506 28.7218C128.557 28.7101 128.611 28.7192 128.655 28.747L168.398 53.7655C168.434 53.7883 168.462 53.8222 168.477 53.8621C168.492 53.902 168.494 53.9457 168.482 53.9868C168.47 54.0278 168.446 54.0639 168.412 54.0896C168.378 54.1153 168.336 54.1286 168.294 54.1287Z" fill="#000032"/>
<path d="M128.55 54.1287C128.508 54.1286 128.466 54.1153 128.432 54.0896C128.398 54.0639 128.373 54.0278 128.361 53.9868C128.349 53.9457 128.351 53.902 128.366 53.8621C128.381 53.8222 128.409 53.7883 128.445 53.7655L168.19 28.747C168.234 28.7192 168.287 28.7101 168.338 28.7218C168.363 28.7276 168.387 28.7383 168.408 28.7533C168.429 28.7683 168.447 28.7873 168.461 28.8092C168.474 28.8312 168.484 28.8556 168.488 28.8812C168.492 28.9067 168.492 28.9329 168.486 28.9581C168.48 28.9834 168.469 29.0073 168.454 29.0284C168.439 29.0495 168.421 29.0675 168.399 29.0812L128.654 54.0998C128.623 54.119 128.587 54.1287 128.55 54.1287Z" fill="#000032"/>
<path d="M168.182 59.2188H128.662V90.8188H168.182V59.2188Z" fill="white"/>
<path d="M168.183 91.0139H128.663C128.638 91.014 128.612 91.009 128.588 90.9991C128.564 90.9892 128.542 90.9747 128.524 90.9564C128.506 90.9381 128.491 90.9163 128.482 90.8923C128.472 90.8683 128.467 90.8426 128.467 90.8167V59.2167C128.467 59.1644 128.488 59.1142 128.524 59.0773C128.561 59.0403 128.611 59.0195 128.663 59.0195H168.183C168.209 59.0195 168.235 59.0246 168.259 59.0345C168.283 59.0444 168.304 59.059 168.323 59.0773C168.341 59.0956 168.355 59.1173 168.365 59.1412C168.375 59.1652 168.38 59.1908 168.38 59.2167V90.8167C168.38 90.8426 168.375 90.8683 168.365 90.8923C168.356 90.9163 168.341 90.9381 168.323 90.9564C168.305 90.9747 168.283 90.9892 168.259 90.9991C168.235 91.009 168.209 91.014 168.183 91.0139ZM128.862 90.6196H167.989V59.4147H128.86L128.862 90.6196Z" fill="#FFECE3"/>
<path d="M161.757 67.7707H135.088C135.061 67.7725 135.034 67.7687 135.008 67.7596C134.983 67.7505 134.959 67.7363 134.94 67.7177C134.92 67.6992 134.904 67.6768 134.893 67.6519C134.883 67.627 134.877 67.6002 134.877 67.5731C134.877 67.5459 134.883 67.5191 134.893 67.4942C134.904 67.4693 134.92 67.4469 134.94 67.4284C134.959 67.4099 134.983 67.3956 135.008 67.3865C135.034 67.3774 135.061 67.3736 135.088 67.3755H161.757C161.784 67.3736 161.811 67.3774 161.836 67.3865C161.862 67.3956 161.885 67.4099 161.905 67.4284C161.925 67.4469 161.94 67.4693 161.951 67.4942C161.962 67.5191 161.968 67.5459 161.968 67.5731C161.968 67.6002 161.962 67.627 161.951 67.6519C161.94 67.6768 161.925 67.6992 161.905 67.7177C161.885 67.7363 161.862 67.7505 161.836 67.7596C161.811 67.7687 161.784 67.7725 161.757 67.7707Z" fill="#FFECE3"/>
<path d="M161.754 72.7342H135.085C135.033 72.7342 134.983 72.7134 134.946 72.6764C134.909 72.6394 134.889 72.5893 134.889 72.537C134.889 72.4847 134.909 72.4346 134.946 72.3976C134.983 72.3606 135.033 72.3398 135.085 72.3398H161.754C161.806 72.3398 161.856 72.3606 161.893 72.3976C161.93 72.4346 161.951 72.4847 161.951 72.537C161.951 72.5893 161.93 72.6394 161.893 72.6764C161.856 72.7134 161.806 72.7342 161.754 72.7342Z" fill="#FFECE3"/>
<path d="M161.757 77.6984H135.088C135.061 77.7002 135.034 77.6965 135.008 77.6874C134.983 77.6783 134.959 77.664 134.94 77.6455C134.92 77.6269 134.904 77.6045 134.893 77.5796C134.883 77.5548 134.877 77.5279 134.877 77.5008C134.877 77.4737 134.883 77.4468 134.893 77.4219C134.904 77.397 134.92 77.3746 134.94 77.3561C134.959 77.3376 134.983 77.3233 135.008 77.3142C135.034 77.3051 135.061 77.3014 135.088 77.3032H161.757C161.784 77.3014 161.811 77.3051 161.836 77.3142C161.862 77.3233 161.885 77.3376 161.905 77.3561C161.925 77.3746 161.94 77.397 161.951 77.4219C161.962 77.4468 161.968 77.4737 161.968 77.5008C161.968 77.5279 161.962 77.5548 161.951 77.5796C161.94 77.6045 161.925 77.6269 161.905 77.6455C161.885 77.664 161.862 77.6783 161.836 77.6874C161.811 77.6965 161.784 77.7002 161.757 77.6984Z" fill="#FFECE3"/>
<path d="M161.757 82.6632H135.088C135.061 82.6651 135.034 82.6613 135.008 82.6522C134.983 82.6431 134.959 82.6288 134.94 82.6103C134.92 82.5918 134.904 82.5694 134.893 82.5445C134.883 82.5196 134.877 82.4928 134.877 82.4656C134.877 82.4385 134.883 82.4117 134.893 82.3868C134.904 82.3619 134.92 82.3395 134.94 82.321C134.959 82.3024 134.983 82.2882 135.008 82.2791C135.034 82.27 135.061 82.2662 135.088 82.268H161.757C161.784 82.2662 161.811 82.27 161.836 82.2791C161.862 82.2882 161.885 82.3024 161.905 82.321C161.925 82.3395 161.94 82.3619 161.951 82.3868C161.962 82.4117 161.968 82.4385 161.968 82.4656C161.968 82.4928 161.962 82.5196 161.951 82.5445C161.94 82.5694 161.925 82.5918 161.905 82.6103C161.885 82.6288 161.862 82.6431 161.836 82.6522C161.811 82.6613 161.784 82.6651 161.757 82.6632Z" fill="#FFECE3"/>
<path d="M123.567 59.2188H84.0469V90.8188H123.567V59.2188Z" fill="white"/>
<path d="M123.568 91.0139H84.0482C83.996 91.0139 83.946 90.9931 83.9091 90.9561C83.8723 90.9191 83.8516 90.869 83.8516 90.8167V59.2167C83.8518 59.1645 83.8726 59.1145 83.9094 59.0775C83.9462 59.0406 83.9961 59.0198 84.0482 59.0195H123.568C123.62 59.0195 123.67 59.0403 123.707 59.0773C123.744 59.1142 123.765 59.1644 123.765 59.2167V90.8167C123.765 90.8426 123.76 90.8683 123.75 90.8923C123.74 90.9163 123.726 90.9381 123.708 90.9564C123.689 90.9747 123.668 90.9892 123.644 90.9991C123.62 91.009 123.594 91.014 123.568 91.0139ZM84.2466 90.6196H123.373V59.4147H84.2448L84.2466 90.6196Z" fill="#FFECE3"/>
<path d="M117.142 67.7707H90.4705C90.4435 67.7725 90.4165 67.7687 90.391 67.7596C90.3655 67.7505 90.3422 67.7363 90.3224 67.7177C90.3026 67.6992 90.2869 67.6768 90.2761 67.6519C90.2653 67.627 90.2598 67.6002 90.2598 67.5731C90.2598 67.5459 90.2653 67.5191 90.2761 67.4942C90.2869 67.4693 90.3026 67.4469 90.3224 67.4284C90.3422 67.4099 90.3655 67.3956 90.391 67.3865C90.4165 67.3774 90.4435 67.3736 90.4705 67.3755H117.142C117.192 67.3788 117.239 67.4011 117.273 67.4378C117.307 67.4745 117.326 67.5228 117.326 67.5731C117.326 67.6233 117.307 67.6716 117.273 67.7083C117.239 67.745 117.192 67.7673 117.142 67.7707Z" fill="#FFECE3"/>
<path d="M117.144 72.7342H90.472C90.4198 72.7342 90.3698 72.7134 90.333 72.6764C90.2961 72.6394 90.2754 72.5893 90.2754 72.537C90.2754 72.4847 90.2961 72.4346 90.333 72.3976C90.3698 72.3606 90.4198 72.3398 90.472 72.3398H117.144C117.196 72.3398 117.246 72.3606 117.283 72.3976C117.32 72.4346 117.34 72.4847 117.34 72.537C117.34 72.5893 117.32 72.6394 117.283 72.6764C117.246 72.7134 117.196 72.7342 117.144 72.7342Z" fill="#FFECE3"/>
<path d="M117.142 77.6984H90.4705C90.4435 77.7002 90.4165 77.6965 90.391 77.6874C90.3655 77.6783 90.3422 77.664 90.3224 77.6455C90.3026 77.6269 90.2869 77.6045 90.2761 77.5796C90.2653 77.5548 90.2598 77.5279 90.2598 77.5008C90.2598 77.4737 90.2653 77.4468 90.2761 77.4219C90.2869 77.397 90.3026 77.3746 90.3224 77.3561C90.3422 77.3376 90.3655 77.3233 90.391 77.3142C90.4165 77.3051 90.4435 77.3014 90.4705 77.3032H117.142C117.192 77.3066 117.239 77.3288 117.273 77.3655C117.307 77.4022 117.326 77.4506 117.326 77.5008C117.326 77.551 117.307 77.5994 117.273 77.636C117.239 77.6727 117.192 77.695 117.142 77.6984Z" fill="#FFECE3"/>
<path d="M117.142 82.6632H90.4705C90.4435 82.6651 90.4165 82.6613 90.391 82.6522C90.3655 82.6431 90.3422 82.6288 90.3224 82.6103C90.3026 82.5918 90.2869 82.5694 90.2761 82.5445C90.2653 82.5196 90.2598 82.4928 90.2598 82.4656C90.2598 82.4385 90.2653 82.4117 90.2761 82.3868C90.2869 82.3619 90.3026 82.3395 90.3224 82.321C90.3422 82.3024 90.3655 82.2882 90.391 82.2791C90.4165 82.27 90.4435 82.2662 90.4705 82.268H117.142C117.192 82.2714 117.239 82.2937 117.273 82.3304C117.307 82.3671 117.326 82.4154 117.326 82.4656C117.326 82.5159 117.307 82.5642 117.273 82.6009C117.239 82.6376 117.192 82.6599 117.142 82.6632Z" fill="#FFECE3"/>
<path d="M245 84.332H122.443V155.274H245V84.332Z" fill="#FFECE3"/>
<path d="M228.234 49.1836H193.057C192.274 49.1848 191.523 49.4976 190.97 50.0533C190.417 50.609 190.107 51.3622 190.107 52.1472V67.7237C190.107 68.1126 190.182 68.4978 190.33 68.8573C190.478 69.2169 190.695 69.5436 190.969 69.8189C191.243 70.0942 191.568 70.3126 191.927 70.4616C192.285 70.6106 192.669 70.6873 193.057 70.6873H228.234C228.622 70.6873 229.006 70.6106 229.364 70.4616C229.723 70.3126 230.048 70.0942 230.322 69.8189C230.596 69.5436 230.813 69.2169 230.961 68.8573C231.109 68.4978 231.184 68.1126 231.183 67.7237V52.1472C231.184 51.3622 230.874 50.609 230.321 50.0533C229.768 49.4976 229.017 49.1848 228.234 49.1836Z" fill="#FF4E00"/>
<path d="M194.377 64.6005V55.123H199.987V56.6181H195.932V59.0608H199.123V60.5425H195.932V64.6005H194.377Z" fill="white"/>
<path d="M201.504 64.6005V55.123H204.908C205.776 55.123 206.468 55.3767 206.982 55.8839C207.505 56.3823 207.766 57.0274 207.766 57.8194C207.766 58.4869 207.58 59.0386 207.208 59.4747C206.844 59.9018 206.317 60.191 205.626 60.3423L209.135 64.6005H207.221L203.764 60.4357H203.06V64.6005H201.504ZM203.06 59.0742H204.722C205.182 59.0742 205.546 58.9674 205.812 58.7538C206.078 58.5314 206.211 58.2199 206.211 57.8194C206.211 57.419 206.078 57.112 205.812 56.8984C205.546 56.6759 205.182 56.5647 204.722 56.5647H203.06V59.0742Z" fill="white"/>
<path d="M210.073 64.6005V55.123H215.75V56.6181H211.628V59.0475H214.952V60.5425H211.628V63.1054H215.75V64.6005H210.073Z" fill="white"/>
<path d="M217.538 64.6005V55.123H223.215V56.6181H219.093V59.0475H222.417V60.5425H219.093V63.1054H223.215V64.6005H217.538Z" fill="white"/>
<path d="M225.242 61.4235L224.963 58.8072V55.123H226.439V58.8072L226.146 61.4235H225.242ZM225.694 64.7073C225.384 64.7073 225.114 64.596 224.883 64.3735C224.662 64.1422 224.551 63.8663 224.551 63.5459C224.551 63.2345 224.662 62.9631 224.883 62.7317C225.114 62.5003 225.384 62.3846 225.694 62.3846C226.013 62.3846 226.284 62.5003 226.505 62.7317C226.736 62.9631 226.851 63.2345 226.851 63.5459C226.851 63.8663 226.736 64.1422 226.505 64.3735C226.284 64.596 226.013 64.7073 225.694 64.7073Z" fill="white"/>
<path d="M40.6421 18.7887C40.8348 18.0214 40.7158 17.2087 40.3113 16.5293C39.9068 15.8499 39.2498 15.3594 38.4847 15.1655C38.3669 15.1371 38.2476 15.1155 38.1273 15.101C38.1318 13.8834 37.954 12.672 37.6 11.5073C37.7107 11.4585 37.8184 11.4031 37.9226 11.3415C38.5879 10.9298 39.0649 10.272 39.2506 9.51043C39.4362 8.74884 39.3155 7.94461 38.9145 7.27155C38.5136 6.59849 37.8647 6.11067 37.108 5.91354C36.3513 5.71641 35.5476 5.8258 34.8707 6.21807C34.7679 6.28117 34.6688 6.3503 34.574 6.42508C33.7192 5.5611 32.7402 4.83038 31.6696 4.25724C31.7136 4.14464 31.7506 4.02941 31.7804 3.91221C31.8759 3.53249 31.8958 3.13763 31.8391 2.75018C31.7824 2.36273 31.6502 1.99027 31.4499 1.65407C31.2497 1.31787 30.9854 1.02452 30.6721 0.790756C30.3588 0.556993 30.0026 0.387401 29.624 0.291662C29.2453 0.195924 28.8515 0.175914 28.4652 0.232775C28.0788 0.289635 27.7074 0.422254 27.3721 0.623058C27.0369 0.823862 26.7443 1.08892 26.5112 1.40309C26.2781 1.71727 26.109 2.07441 26.0135 2.45413C25.9852 2.57227 25.9637 2.69197 25.9492 2.8126C24.7359 2.80854 23.5288 2.98677 22.3682 3.34135C22.3199 3.23033 22.2649 3.1223 22.2038 3.01783C22.0066 2.6752 21.7434 2.37534 21.4295 2.1357C21.1156 1.89607 20.7573 1.72145 20.3754 1.62202C19.9936 1.52259 19.5959 1.50033 19.2054 1.55653C18.8149 1.61274 18.4394 1.74629 18.1009 1.94941C17.7623 2.15252 17.4675 2.42115 17.2335 2.73964C16.9995 3.05814 16.831 3.42013 16.7379 3.80455C16.6447 4.18897 16.6288 4.58813 16.6909 4.97879C16.7531 5.36945 16.8922 5.74381 17.1 6.08006C17.1625 6.18355 17.2312 6.2832 17.3055 6.37848C16.4444 7.23605 15.7166 8.21846 15.1464 9.29284C15.034 9.24881 14.9191 9.2114 14.8024 9.18082C14.0472 9.01594 13.2576 9.15217 12.6008 9.56068C11.944 9.96918 11.4714 10.6179 11.2831 11.3696C11.0947 12.1213 11.2054 12.917 11.5917 13.5883C11.978 14.2596 12.6096 14.7539 13.3528 14.9665C13.4705 14.9958 13.5899 15.0176 13.7103 15.0319C13.7059 16.2495 13.8834 17.4608 14.2367 18.6256C14.1263 18.6741 14.0188 18.7292 13.9149 18.7905C13.2374 19.1962 12.7484 19.8552 12.5554 20.6225C12.3624 21.3898 12.4813 22.2026 12.8859 22.882C13.2905 23.5614 13.9476 24.0518 14.7128 24.2453C15.478 24.4389 16.2884 24.3197 16.966 23.9139C17.0693 23.8514 17.1687 23.7826 17.2635 23.7078C18.1182 24.572 19.0972 25.3027 20.168 25.8757C20.124 25.9883 20.0866 26.1036 20.0563 26.2207C19.8635 26.9876 19.9823 27.7998 20.3867 28.4788C20.7912 29.1578 21.448 29.6479 22.2127 29.8412C22.9775 30.0346 23.7875 29.9154 24.4646 29.5098C25.1416 29.1043 25.6303 28.4456 25.8232 27.6788C25.8523 27.5607 25.8741 27.441 25.8884 27.3203C27.1006 27.3261 28.3068 27.1494 29.4667 26.796C29.515 26.907 29.5699 27.0151 29.6311 27.1196C29.8316 27.4557 30.0962 27.7489 30.4097 27.9825C30.7232 28.2161 31.0795 28.3854 31.4583 28.4809C31.8371 28.5764 32.2309 28.5962 32.6173 28.539C33.0037 28.4819 33.3751 28.349 33.7103 28.1479C34.0455 27.9468 34.3379 27.6815 34.5708 27.3672C34.8037 27.0528 34.9726 26.6954 35.0679 26.3156C35.1631 25.9358 35.1828 25.5408 35.1258 25.1533C35.0688 24.7659 34.9363 24.3934 34.7358 24.0573C34.6726 23.9542 34.604 23.8546 34.5302 23.7589C35.3909 22.9009 36.1187 21.9186 36.6893 20.8445C36.8017 20.8887 36.9166 20.9261 37.0334 20.9566C37.4123 21.052 37.8063 21.0716 38.1927 21.0143C38.5792 20.957 38.9506 20.8239 39.2857 20.6226C39.6209 20.4212 39.9132 20.1556 40.1459 19.841C40.3786 19.5263 40.5472 19.1688 40.6421 18.7887ZM31.2737 16.4201C31.0061 17.4816 30.4307 18.4397 29.6202 19.1734C28.8097 19.907 27.8005 20.3833 26.7202 20.5419C25.6399 20.7006 24.5369 20.5345 23.5507 20.0647C22.5645 19.5949 21.7393 18.8425 21.1794 17.9025C20.6195 16.9625 20.3501 15.8772 20.4051 14.7837C20.4602 13.6902 20.8372 12.6376 21.4887 11.7589C22.1402 10.8803 23.0367 10.215 24.0651 9.84721C25.0935 9.47941 26.2076 9.42559 27.2664 9.69254C27.9704 9.86977 28.6327 10.1845 29.2152 10.6187C29.7978 11.0529 30.2892 11.598 30.6614 12.2229C31.0337 12.8478 31.2793 13.5402 31.3844 14.2604C31.4894 14.9806 31.4518 15.7145 31.2737 16.4201Z" fill="white"/>
<path d="M22.942 30.1313C22.4588 30.1313 21.982 30.0207 21.5478 29.808C21.1137 29.5953 20.7336 29.286 20.4367 28.9038C20.1397 28.5215 19.9336 28.0764 19.8341 27.6022C19.7346 27.128 19.7443 26.6374 19.8624 26.1675C19.8785 26.1021 19.8991 26.034 19.9223 25.9632C18.9423 25.4215 18.0403 24.7486 17.2413 23.9629C17.1805 24.0059 17.1215 24.0436 17.0625 24.0785C16.7051 24.2927 16.3092 24.4342 15.8972 24.4949C15.4853 24.5557 15.0654 24.5344 14.6617 24.4324C14.258 24.3303 13.8782 24.1495 13.5442 23.9003C13.2101 23.6511 12.9283 23.3383 12.7148 22.9798C12.2846 22.2552 12.1583 21.3892 12.3634 20.5713C12.5686 19.7535 13.0886 19.0505 13.8096 18.6163C13.8677 18.5823 13.9293 18.5482 13.9954 18.5151C13.6845 17.437 13.521 16.3215 13.5093 15.1992C13.436 15.1867 13.3672 15.1723 13.302 15.1553C12.4947 14.9415 11.804 14.4172 11.3797 13.6961C10.9553 12.975 10.8316 12.1152 11.0353 11.3032C11.239 10.4912 11.7537 9.79248 12.4678 9.35854C13.1819 8.9246 14.0377 8.79044 14.8498 8.98515C14.915 9.00129 14.9821 9.021 15.0527 9.0452C15.5924 8.0624 16.2632 7.15791 17.0465 6.35667C17.0027 6.29484 16.9651 6.23569 16.9303 6.17744C16.4995 5.45319 16.3728 4.5872 16.5779 3.76939C16.7829 2.95158 17.303 2.24869 18.0241 1.81486C18.3815 1.60065 18.7775 1.45915 19.1894 1.39844C19.6014 1.33773 20.0212 1.359 20.425 1.46103C20.8287 1.56306 21.2085 1.74385 21.5425 1.99308C21.8766 2.24231 22.1584 2.5551 22.3719 2.91357C22.4067 2.97272 22.4407 3.03455 22.4737 3.10087C23.5487 2.78823 24.6611 2.62421 25.7803 2.61335C25.7928 2.53987 25.8071 2.47086 25.8241 2.40544C25.9206 1.99498 26.0975 1.60787 26.3445 1.26663C26.5916 0.925385 26.9039 0.636835 27.2632 0.417772C27.6225 0.198709 28.0217 0.0535099 28.4375 -0.0093721C28.8534 -0.0722541 29.2775 -0.0515634 29.6853 0.0514958C30.093 0.154555 30.4763 0.337924 30.8127 0.590928C31.1491 0.843932 31.432 1.16152 31.6449 1.52519C31.8577 1.88887 31.9963 2.29138 32.0526 2.70928C32.1089 3.12719 32.0817 3.55214 31.9726 3.95941C31.9556 4.02483 31.936 4.09294 31.9127 4.16373C32.8928 4.70542 33.7947 5.37835 34.5938 6.164C34.6536 6.12098 34.7126 6.08244 34.7725 6.04749C35.4954 5.6148 36.3601 5.4878 37.1764 5.69443C37.9927 5.90107 38.6936 6.42442 39.1251 7.14934C39.5566 7.87427 39.6833 8.74139 39.4772 9.55995C39.2711 10.3785 38.7493 11.0815 38.0264 11.5142C37.9674 11.5491 37.9066 11.5832 37.8396 11.6163C38.1509 12.6944 38.3145 13.8099 38.3257 14.9322C38.399 14.9447 38.4678 14.9591 38.534 14.9761C39.3412 15.1899 40.0319 15.7142 40.4563 16.4353C40.8806 17.1564 41.0043 18.0162 40.8006 18.8282C40.5969 19.6402 40.0822 20.3389 39.3681 20.7729C38.6541 21.2068 37.7982 21.341 36.9861 21.1462C36.9191 21.1292 36.853 21.1095 36.7824 21.0862C36.2429 22.069 35.5724 22.9735 34.7895 23.7747C34.8324 23.8357 34.8708 23.8948 34.9056 23.954C35.3361 24.6789 35.4624 25.5455 35.2566 26.3637C35.0509 27.1818 34.53 27.8848 33.8082 28.3183C33.4508 28.5326 33.0548 28.6742 32.6428 28.7349C32.2308 28.7956 31.8109 28.7743 31.4071 28.6721C31.0033 28.57 30.6236 28.3891 30.2895 28.1397C29.9555 27.8903 29.6738 27.5774 29.4605 27.2187C29.4265 27.1614 29.3926 27.0995 29.3595 27.0323C28.2845 27.3445 27.1721 27.5085 26.0529 27.5198C26.0404 27.5933 26.0252 27.6623 26.0091 27.7287C25.8369 28.4146 25.4417 29.0234 24.886 29.459C24.3302 29.8946 23.6456 30.1321 22.9402 30.134L22.942 30.1313ZM17.26 23.5095C17.286 23.5094 17.3117 23.5145 17.3356 23.5245C17.3595 23.5345 17.3813 23.5492 17.3995 23.5677C18.2409 24.4179 19.2049 25.1366 20.2592 25.6997C20.3012 25.7229 20.3333 25.7606 20.3498 25.8057C20.3662 25.8508 20.3658 25.9004 20.3486 25.9453C20.2121 26.2995 20.1494 26.678 20.1643 27.0575C20.1792 27.437 20.2713 27.8094 20.4351 28.1518C20.5988 28.4942 20.8307 28.7994 21.1165 29.0486C21.4023 29.2978 21.7359 29.4857 22.0968 29.6008C22.4576 29.7159 22.8382 29.7557 23.215 29.7178C23.5918 29.6798 23.9569 29.565 24.2878 29.3803C24.6187 29.1956 24.9084 28.945 25.1391 28.6439C25.3698 28.3427 25.5366 27.9974 25.6293 27.6292C25.6563 27.5194 25.6763 27.4081 25.6892 27.2958C25.6953 27.248 25.7185 27.2041 25.7545 27.1723C25.7905 27.1405 25.8369 27.1229 25.8849 27.1228C25.8989 27.1219 25.9129 27.1219 25.9269 27.1228C27.1064 27.1233 28.2795 26.9481 29.4078 26.6031C29.4539 26.5891 29.5035 26.5925 29.5472 26.6126C29.591 26.6327 29.626 26.6682 29.6455 26.7124C29.7966 27.0632 30.0181 27.3791 30.2963 27.6403C30.5744 27.9015 30.9033 28.1025 31.2622 28.2307C31.6212 28.3589 32.0027 28.4117 32.3829 28.3856C32.7631 28.3595 33.1339 28.2553 33.4721 28.0792C33.8104 27.9032 34.1089 27.6593 34.349 27.3625C34.5891 27.0658 34.7658 26.7226 34.8679 26.3545C34.97 25.9863 34.9954 25.601 34.9426 25.2225C34.8897 24.8441 34.7597 24.4806 34.5607 24.1547C34.5019 24.058 34.4375 23.965 34.3677 23.876C34.3382 23.8379 34.3237 23.7904 34.3269 23.7424C34.33 23.6943 34.3505 23.6491 34.3846 23.6152C35.2321 22.7715 35.9482 21.8048 36.5089 20.7474C36.532 20.7054 36.5696 20.6731 36.6146 20.6567C36.6596 20.6402 36.709 20.6406 36.7538 20.6578C36.8587 20.6996 36.9661 20.7346 37.0755 20.7627C37.4292 20.852 37.7969 20.8705 38.1577 20.8172C38.5185 20.7639 38.8653 20.6399 39.1783 20.4521C39.4913 20.2644 39.7643 20.0166 39.9817 19.723C40.1992 19.4293 40.3568 19.0956 40.4455 18.7409C40.5437 18.3584 40.5592 17.9592 40.4911 17.5702C40.423 17.1811 40.2727 16.8112 40.0504 16.4851C39.8281 16.159 39.5389 15.8843 39.2022 15.6794C38.8654 15.4745 38.4889 15.3441 38.0978 15.2969C38.0502 15.291 38.0064 15.2677 37.9748 15.2315C37.9432 15.1953 37.9259 15.1488 37.9263 15.1007C37.9302 13.9029 37.7555 12.7112 37.4079 11.5652C37.3936 11.5193 37.3967 11.4696 37.4166 11.4257C37.4366 11.3819 37.472 11.347 37.5161 11.3278C37.8774 11.1695 38.2008 10.9357 38.4648 10.642C38.7288 10.3483 38.9272 10.0015 39.0468 9.62481C39.1664 9.24807 39.2045 8.85007 39.1584 8.45741C39.1124 8.06475 38.9832 7.68646 38.7797 7.34784C38.5933 7.03327 38.3468 6.75872 38.0543 6.53997C37.7617 6.32121 37.429 6.16257 37.0752 6.07313C36.7214 5.9837 36.3534 5.96524 35.9924 6.01882C35.6315 6.0724 35.2846 6.19696 34.9718 6.38535C34.8754 6.44395 34.7826 6.50829 34.6938 6.57803C34.6559 6.60752 34.6085 6.62207 34.5606 6.61893C34.5127 6.6158 34.4676 6.59519 34.4338 6.561C33.5923 5.71055 32.6283 4.99158 31.574 4.42811C31.532 4.4052 31.4997 4.36773 31.4833 4.32269C31.4668 4.27766 31.4673 4.22815 31.4847 4.18345C31.5258 4.07805 31.5607 3.97032 31.5892 3.86083C31.7674 3.14467 31.6556 2.38688 31.2781 1.75322C30.9006 1.11956 30.2882 0.661615 29.5749 0.479559C29.2212 0.390258 28.8535 0.371723 28.4927 0.425014C28.1318 0.478304 27.785 0.602374 27.4721 0.790134C27.1591 0.977894 26.8861 1.22566 26.6686 1.51928C26.4512 1.8129 26.2936 2.1466 26.2048 2.50133C26.1779 2.61112 26.1576 2.72245 26.1441 2.83471C26.1382 2.88239 26.1151 2.92628 26.0793 2.95813C26.0434 2.98998 25.9972 3.00759 25.9492 3.00767H25.9072C24.7278 3.00736 23.5548 3.18222 22.4264 3.52655C22.3804 3.541 22.3307 3.53792 22.2868 3.51791C22.243 3.4979 22.208 3.46237 22.1887 3.41812C22.1434 3.31448 22.0921 3.21363 22.0349 3.11611C21.6568 2.48233 21.043 2.02516 20.3288 1.84516C19.6145 1.66516 18.8581 1.77708 18.2261 2.1563C17.5941 2.53552 17.1382 3.15097 16.9587 3.86727C16.7792 4.58356 16.8908 5.34202 17.269 5.9758C17.3274 6.07217 17.3916 6.16494 17.4611 6.25361C17.4906 6.29181 17.5051 6.33949 17.502 6.38768C17.4989 6.43587 17.4783 6.48125 17.4441 6.5153C16.5973 7.35958 15.8813 8.32621 15.3199 9.38306C15.297 9.4252 15.2597 9.45754 15.2148 9.47404C15.1698 9.49053 15.1205 9.49005 15.0759 9.47267C14.7224 9.33615 14.3447 9.2736 13.9662 9.28886C13.5877 9.30412 13.2162 9.39687 12.8748 9.56141C12.5333 9.72595 12.229 9.95879 11.9806 10.2456C11.7322 10.5325 11.545 10.8672 11.4304 11.2293C11.3158 11.5914 11.2762 11.9732 11.3142 12.3512C11.3522 12.7292 11.4669 13.0954 11.6512 13.4273C11.8356 13.7592 12.0857 14.0497 12.3862 14.2811C12.6866 14.5125 13.0311 14.6797 13.3985 14.7727C13.5079 14.7996 13.619 14.8197 13.7309 14.8327C13.7787 14.8388 13.8226 14.8622 13.8544 14.8985C13.8861 14.9349 13.9036 14.9816 13.9034 15.0299C13.8994 16.2277 14.0741 17.4193 14.4217 18.5653C14.4355 18.6114 14.4322 18.661 14.4123 18.7048C14.3924 18.7487 14.3573 18.7838 14.3136 18.8036C14.2103 18.8487 14.1097 18.8999 14.0124 18.9569C13.5411 19.24 13.1639 19.6568 12.9286 20.1547C12.6933 20.6526 12.6104 21.2092 12.6904 21.7543C12.7703 22.2994 13.0095 22.8086 13.3778 23.2174C13.746 23.6263 14.2269 23.9166 14.7595 24.0516C15.1125 24.1434 15.4801 24.1638 15.841 24.1117C16.2018 24.0595 16.5487 23.9358 16.8615 23.7478C16.958 23.6895 17.0508 23.6251 17.1394 23.5552C17.1733 23.5268 17.2158 23.5107 17.26 23.5095ZM25.9287 20.8066C25.0579 20.8062 24.1987 20.6067 23.4163 20.2233C22.6339 19.8399 21.9491 19.2827 21.4137 18.594C20.8784 17.9052 20.5067 17.1032 20.327 16.2488C20.1472 15.3943 20.1641 14.5101 20.3763 13.6632C20.639 12.6226 21.1877 11.6769 21.9599 10.9336C22.732 10.1902 23.6967 9.67906 24.7442 9.45824C25.7917 9.23743 26.88 9.31581 27.8853 9.68448C28.8905 10.0532 29.7725 10.6973 30.4308 11.5437C31.0891 12.3901 31.4973 13.4047 31.6091 14.4723C31.7208 15.5398 31.5316 16.6173 31.0629 17.5823C30.5943 18.5474 29.865 19.3612 28.958 19.9311C28.051 20.5011 27.0027 20.8044 25.9323 20.8066H25.9287ZM25.9072 9.71823C24.7226 9.72198 23.5729 10.1213 22.6398 10.8532C21.7067 11.5851 21.0433 12.6079 20.7543 13.76C20.5761 14.4424 20.5345 15.1535 20.6318 15.8521C20.7292 16.5507 20.9637 17.2231 21.3216 17.8304C21.6796 18.4377 22.154 18.9678 22.7174 19.3902C23.2809 19.8125 23.9222 20.1188 24.6043 20.2912C25.2864 20.4636 25.9959 20.4988 26.6916 20.3948C27.3874 20.2907 28.0557 20.0494 28.658 19.6849C29.2602 19.3203 29.7845 18.8398 30.2005 18.2709C30.6165 17.702 30.9159 17.0561 31.0816 16.3705C31.279 15.5816 31.2945 14.7579 31.1267 13.962C30.959 13.1662 30.6125 12.4192 30.1136 11.7778C29.6148 11.1365 28.9766 10.6176 28.2477 10.2607C27.5188 9.90382 26.7184 9.71829 25.9072 9.71823Z" fill="#000032"/>
<path d="M18.0647 38.3804C18.1289 38.1327 18.1395 37.8741 18.0956 37.622C18.0518 37.3699 17.9547 37.1301 17.8108 36.9188C17.6668 36.7075 17.4794 36.5295 17.2612 36.3969C17.0429 36.2642 16.7989 36.18 16.5455 36.1498C16.5474 35.4133 16.4399 34.6805 16.2264 33.9757C16.2936 33.947 16.3587 33.9138 16.4213 33.8762C16.8244 33.6276 17.1136 33.2297 17.2263 32.7688C17.3391 32.3079 17.2662 31.821 17.0236 31.4135C16.7809 31.0061 16.388 30.7108 15.9299 30.5917C15.4718 30.4727 14.9853 30.5393 14.5758 30.7773C14.5139 30.8153 14.4542 30.8569 14.3971 30.9018C13.8796 30.38 13.2875 29.9384 12.6401 29.5916C12.6666 29.5234 12.689 29.4537 12.7072 29.3828C12.7695 29.1434 12.7821 28.8937 12.7441 28.6492C12.7061 28.4047 12.6183 28.1707 12.4863 27.9617C12.3542 27.7526 12.1807 27.5731 11.9765 27.4342C11.7723 27.2953 11.5418 27.2 11.2994 27.1542C11.0569 27.1084 10.8076 27.1131 10.567 27.1681C10.3264 27.2231 10.0997 27.3271 9.90089 27.4736C9.7021 27.6202 9.5355 27.8062 9.41145 28.0201C9.2874 28.234 9.20856 28.4712 9.17983 28.717C8.44564 28.7137 7.71512 28.821 7.01267 29.0351C6.98336 28.9681 6.95024 28.9029 6.91347 28.8397C6.79405 28.6328 6.6348 28.4518 6.44499 28.3071C6.25519 28.1625 6.0386 28.0571 5.80782 27.9971C5.57705 27.9371 5.33668 27.9237 5.1007 27.9577C4.86472 27.9917 4.63783 28.0724 4.43322 28.1951C4.22861 28.3178 4.05036 28.4801 3.90883 28.6724C3.7673 28.8648 3.66531 29.0835 3.60879 29.3157C3.55228 29.548 3.54236 29.7892 3.57962 30.0253C3.61688 30.2615 3.70057 30.4878 3.82582 30.6912C3.86397 30.7532 3.90544 30.813 3.95004 30.8705C3.42924 31.3892 2.98911 31.9834 2.64438 32.6332C2.5763 32.6067 2.50678 32.5839 2.43616 32.5651C1.97315 32.4484 1.48287 32.521 1.07318 32.7668C0.663486 33.0125 0.367946 33.4115 0.251571 33.8758C0.135195 34.3401 0.207517 34.8317 0.452627 35.2426C0.697737 35.6534 1.09556 35.9498 1.55857 36.0665C1.6293 36.0835 1.7009 36.0967 1.77305 36.1059C1.77104 36.8422 1.87857 37.5747 2.09209 38.2791C2.02512 38.3085 1.96005 38.342 1.89727 38.3795C1.48759 38.6249 1.1919 39.0235 1.07525 39.4875C0.958604 39.9515 1.03055 40.443 1.27527 40.8539C1.52 41.2647 1.91744 41.5612 2.38017 41.6782C2.84291 41.7951 3.33303 41.723 3.74271 41.4776C3.80504 41.4402 3.86475 41.3986 3.92145 41.353C4.43865 41.8754 5.03085 42.3174 5.67841 42.6641C5.65192 42.7323 5.62954 42.8021 5.61138 42.8729C5.54184 43.1062 5.52011 43.3512 5.5475 43.5931C5.57489 43.8351 5.65083 44.0689 5.77076 44.2806C5.89068 44.4924 6.0521 44.6775 6.2453 44.825C6.43849 44.9725 6.65946 45.0792 6.89488 45.1388C7.13031 45.1984 7.37532 45.2095 7.61517 45.1716C7.85501 45.1337 8.08471 45.0475 8.29044 44.9182C8.49617 44.7888 8.67367 44.6191 8.81223 44.4192C8.9508 44.2192 9.04757 43.9932 9.09671 43.7548C9.11413 43.6836 9.12727 43.6115 9.13604 43.5388C9.86967 43.5416 10.5996 43.434 11.3014 43.2198C11.3307 43.2867 11.3638 43.352 11.4006 43.4151C11.6456 43.8257 12.0431 44.1219 12.5059 44.2385C12.735 44.2963 12.9732 44.3082 13.2069 44.2737C13.4407 44.2391 13.6653 44.1587 13.868 44.0371C14.0708 43.9154 14.2476 43.755 14.3885 43.5648C14.5294 43.3746 14.6316 43.1585 14.6892 42.9287C14.7468 42.6989 14.7587 42.4601 14.7242 42.2257C14.6897 41.9913 14.6095 41.766 14.4883 41.5627C14.4504 41.5006 14.409 41.4407 14.364 41.3835C14.8847 40.8646 15.3248 40.2704 15.6697 39.6207C15.7377 39.6473 15.8072 39.6697 15.8779 39.6879C16.1071 39.7464 16.3456 39.7589 16.5796 39.7248C16.8137 39.6907 17.0387 39.6106 17.2418 39.4891C17.445 39.3677 17.6222 39.2072 17.7634 39.017C17.9046 38.8267 18.007 38.6104 18.0647 38.3804ZM12.3979 36.9465C12.2362 37.5888 11.8883 38.1686 11.398 38.6126C10.9078 39.0566 10.2972 39.3449 9.64364 39.441C8.99004 39.5371 8.3227 39.4367 7.72598 39.1525C7.12926 38.8683 6.62995 38.4131 6.29119 37.8444C5.95242 37.2757 5.78939 36.6191 5.82273 35.9575C5.85606 35.2959 6.08425 34.659 6.47845 34.1275C6.87265 33.5959 7.41517 33.1935 8.03741 32.9711C8.65965 32.7487 9.33369 32.7162 9.9743 32.8779C10.4002 32.9851 10.8007 33.1755 11.1531 33.4381C11.5055 33.7008 11.8028 34.0305 12.0279 34.4085C12.253 34.7865 12.4016 35.2054 12.4651 35.641C12.5286 36.0767 12.5058 36.5197 12.3979 36.9465Z" fill="white"/>
<path d="M7.35915 45.3196C7.0551 45.32 6.75498 45.2508 6.48167 45.1172C6.20836 44.9836 5.96906 44.7892 5.78202 44.5489C5.59498 44.3085 5.46513 44.0285 5.40237 43.7301C5.33961 43.4318 5.3456 43.123 5.41987 42.8274C5.42613 42.8059 5.43149 42.7835 5.43864 42.7602C4.8796 42.4451 4.36304 42.0596 3.90152 41.6131C3.88186 41.6265 3.8622 41.6382 3.84343 41.6498C3.61847 41.7847 3.3692 41.8739 3.10987 41.9122C2.85054 41.9505 2.58623 41.9372 2.33203 41.873C2.07783 41.8088 1.83873 41.6951 1.62838 41.5382C1.41803 41.3814 1.24056 41.1845 1.10611 40.9589C0.835298 40.5029 0.755756 39.9578 0.884904 39.4432C1.01405 38.9285 1.34136 38.4861 1.79513 38.213L1.8559 38.178C1.68243 37.5587 1.58873 36.9196 1.57707 36.2763C1.55384 36.271 1.53149 36.2665 1.50915 36.2602C1.12656 36.1631 0.781231 35.9545 0.516761 35.6607C0.252291 35.367 0.0805333 35.0012 0.0231673 34.6096C-0.0341988 34.2181 0.0253987 33.8182 0.194437 33.4606C0.363475 33.103 0.634377 32.8036 0.972948 32.6002C1.19751 32.4644 1.44676 32.3748 1.7062 32.3364C1.96564 32.2981 2.23009 32.3119 2.48415 32.3771L2.55118 32.395C2.86527 31.8345 3.24905 31.3163 3.69329 30.8527C3.68078 30.833 3.66827 30.8133 3.65665 30.7935C3.516 30.5679 3.42164 30.3164 3.37909 30.0537C3.33655 29.7911 3.34666 29.5226 3.40885 29.2639C3.47104 29.0052 3.58405 28.7615 3.74127 28.5472C3.89849 28.3328 4.09677 28.152 4.3245 28.0155C4.55223 27.8789 4.80484 27.7892 5.06754 27.7517C5.33025 27.7142 5.59778 27.7296 5.85447 27.797C6.11117 27.8644 6.35188 27.9825 6.56252 28.1443C6.77316 28.3062 6.9495 28.5085 7.08121 28.7395C7.09283 28.7592 7.10445 28.7789 7.11517 28.8004C7.73219 28.6264 8.36891 28.5325 9.00976 28.5208C9.01513 28.4975 9.01959 28.4751 9.02585 28.4527C9.08966 28.1978 9.20293 27.958 9.3592 27.747C9.51547 27.5361 9.71167 27.358 9.93658 27.2231C10.1615 27.0882 10.4107 26.9991 10.67 26.9608C10.9293 26.9225 11.1936 26.9358 11.4477 27C11.9605 27.1307 12.4008 27.4598 12.6722 27.9154C12.9435 28.3709 13.0238 28.9157 12.8955 29.4305C12.8892 29.4529 12.8838 29.4753 12.8767 29.4977C13.4355 29.8131 13.9521 30.1985 14.4138 30.6448L14.4728 30.608C14.9274 30.3358 15.4712 30.2558 15.9847 30.3856C16.4981 30.5154 16.9391 30.8445 17.2106 31.3003C17.4821 31.7562 17.5619 32.3016 17.4324 32.8164C17.3029 33.3313 16.9748 33.7735 16.5202 34.0458L16.4603 34.0807C16.6331 34.7002 16.7265 35.3392 16.7383 35.9824L16.8062 35.9976C17.3193 36.1281 17.76 36.4573 18.0314 36.9131C18.3028 37.3689 18.3828 37.9141 18.2539 38.429C18.1245 38.9433 17.7966 39.385 17.3424 39.6569C16.8883 39.9288 16.345 40.0087 15.8321 39.879L15.7651 39.8601C15.4512 40.4208 15.0674 40.9391 14.6229 41.4025C14.6354 41.4231 14.648 41.4419 14.6596 41.4616C14.9307 41.9177 15.0104 42.4629 14.8812 42.9778C14.752 43.4927 14.4246 43.9352 13.9706 44.2084C13.5161 44.4803 12.9727 44.5601 12.4595 44.4304C11.9464 44.3007 11.5057 43.972 11.2341 43.5165C11.2225 43.4968 11.2118 43.4762 11.2002 43.4556C10.583 43.6291 9.94638 43.7231 9.30557 43.7352C9.3011 43.7585 9.29574 43.7809 9.28948 43.8033C9.18137 44.2349 8.93287 44.6181 8.58327 44.8922C8.23368 45.1664 7.80293 45.3158 7.35915 45.3169V45.3196ZM3.92207 41.1587C3.94799 41.1587 3.97365 41.1639 3.99758 41.1739C4.02151 41.1839 4.04323 41.1985 4.06149 41.2169C4.5643 41.7259 5.14062 42.1561 5.77109 42.4931C5.81311 42.516 5.84537 42.5535 5.86182 42.5985C5.87827 42.6436 5.87778 42.6931 5.86045 42.7378C5.83694 42.7988 5.81666 42.861 5.79968 42.9242C5.69722 43.3374 5.76185 43.7745 5.97949 44.1402C6.19713 44.5058 6.55011 44.7703 6.96146 44.876C7.18146 44.9327 7.411 44.9415 7.63467 44.9019C7.85835 44.8623 8.071 44.7752 8.25838 44.6465C8.44575 44.5178 8.60351 44.3503 8.72108 44.1554C8.83864 43.9606 8.91331 43.7427 8.94006 43.5165C8.94616 43.4689 8.96941 43.4251 9.00546 43.3934C9.0415 43.3617 9.08784 43.3443 9.13577 43.3445C9.13577 43.3445 9.15365 43.3445 9.16258 43.3445C9.86788 43.3445 10.5693 43.2397 11.2439 43.0335C11.2898 43.0197 11.3391 43.0231 11.3827 43.043C11.4263 43.063 11.4611 43.0981 11.4808 43.1419C11.5073 43.2018 11.5372 43.2601 11.5701 43.3167C11.675 43.5036 11.8161 43.6676 11.9851 43.7989C12.1541 43.9303 12.3476 44.0264 12.5542 44.0817C12.7609 44.1369 12.9764 44.15 13.1882 44.1204C13.4 44.0908 13.6037 44.0189 13.7874 43.9091C13.9711 43.7992 14.131 43.6537 14.2577 43.4809C14.3843 43.3082 14.4753 43.1117 14.5251 42.9032C14.5749 42.6946 14.5825 42.4782 14.5476 42.2666C14.5127 42.0551 14.4359 41.8526 14.3218 41.6713C14.2879 41.6158 14.2509 41.5622 14.211 41.5109C14.1816 41.4729 14.1671 41.4254 14.17 41.3775C14.173 41.3295 14.1932 41.2842 14.227 41.2501C14.7341 40.745 15.1628 40.1665 15.4987 39.5339C15.5217 39.4917 15.5593 39.4594 15.6043 39.4429C15.6494 39.4264 15.6989 39.4269 15.7436 39.4443C15.8039 39.4686 15.8657 39.4889 15.9286 39.5053C16.3414 39.6095 16.7785 39.545 17.1439 39.326C17.5092 39.107 17.7729 38.7515 17.8768 38.3375C17.9807 37.9236 17.9164 37.4852 17.6981 37.1189C17.4797 36.7525 17.1251 36.4881 16.7123 36.3839C16.6492 36.3679 16.585 36.3562 16.5202 36.3489C16.4724 36.3428 16.4285 36.3194 16.3968 36.2831C16.365 36.2468 16.3476 36.2001 16.3477 36.1518C16.3505 35.4352 16.2459 34.7223 16.0376 34.0368C16.0238 33.9907 16.0272 33.9411 16.0471 33.8973C16.0669 33.8534 16.102 33.8183 16.1458 33.7984C16.2072 33.7724 16.2669 33.7425 16.3245 33.7088C16.5098 33.6029 16.6723 33.461 16.8022 33.2914C16.9322 33.1218 17.0271 32.9279 17.0814 32.721C17.1357 32.5142 17.1483 32.2985 17.1185 32.0867C17.0886 31.8749 17.0169 31.6712 16.9076 31.4876C16.7982 31.3039 16.6534 31.144 16.4816 31.0171C16.3099 30.8903 16.1146 30.7991 15.9072 30.7489C15.6999 30.6987 15.4846 30.6905 15.2741 30.7248C15.0635 30.7591 14.8619 30.8352 14.681 30.9486C14.6256 30.9825 14.5722 31.0196 14.5211 31.0597C14.4831 31.0896 14.4356 31.1044 14.3875 31.1014C14.3394 31.0985 14.2941 31.0779 14.2601 31.0436C13.7573 30.5346 13.181 30.1044 12.5505 29.7674C12.5084 29.7444 12.4761 29.7067 12.4597 29.6615C12.4432 29.6163 12.4438 29.5667 12.4611 29.5219C12.4852 29.4613 12.5055 29.3994 12.5219 29.3364C12.6244 28.9231 12.5597 28.486 12.3421 28.1204C12.1245 27.7547 11.7715 27.4902 11.3601 27.3845C10.9483 27.2806 10.5122 27.3449 10.1477 27.5634C9.78319 27.7819 9.52014 28.1366 9.41639 28.5495C9.40068 28.6129 9.38904 28.6773 9.38153 28.7422C9.37545 28.79 9.35223 28.8339 9.3162 28.8657C9.28018 28.8975 9.23383 28.9151 9.18582 28.9152H9.16169C8.45547 28.9146 7.7531 29.0194 7.07764 29.2261C7.03154 29.2401 6.98193 29.2367 6.93815 29.2166C6.89437 29.1964 6.85944 29.161 6.83992 29.1168C6.81396 29.0569 6.78411 28.9989 6.75055 28.9429C6.64502 28.7571 6.50353 28.5942 6.33439 28.4638C6.16526 28.3335 5.97187 28.2384 5.76558 28.184C5.55929 28.1296 5.34424 28.117 5.13305 28.147C4.92186 28.1771 4.71877 28.2491 4.5357 28.3589C4.35263 28.4687 4.19326 28.614 4.06694 28.7863C3.94061 28.9587 3.84987 29.1546 3.80005 29.3626C3.75022 29.5706 3.7423 29.7865 3.77676 29.9975C3.81122 30.2086 3.88736 30.4107 4.00072 30.5919C4.03436 30.6481 4.07167 30.702 4.11243 30.7532C4.14147 30.7914 4.15575 30.8389 4.15263 30.8868C4.1495 30.9347 4.1292 30.9799 4.09545 31.014C3.58857 31.5189 3.15992 32.0971 2.82375 32.7293C2.80091 32.7714 2.76354 32.8038 2.71863 32.8203C2.67372 32.8368 2.62435 32.8363 2.57977 32.8189C2.51927 32.7944 2.45716 32.774 2.39389 32.758C1.98136 32.6536 1.5444 32.7179 1.17912 32.9366C0.813843 33.1554 0.550177 33.5106 0.446127 33.9243C0.342076 34.338 0.406163 34.7762 0.62429 35.1425C0.842417 35.5088 1.19672 35.7732 1.60924 35.8775C1.6722 35.8932 1.73607 35.9049 1.80049 35.9125C1.84698 35.92 1.88927 35.9439 1.91975 35.9798C1.95023 36.0158 1.96688 36.0615 1.96671 36.1088C1.96401 36.8256 2.06854 37.5388 2.27682 38.2246C2.29076 38.2709 2.28737 38.3206 2.26729 38.3645C2.24721 38.4084 2.21182 38.4434 2.16779 38.463C2.10837 38.4896 2.05048 38.5195 1.99442 38.5526C1.63059 38.7726 1.36831 39.128 1.26484 39.5412C1.16137 39.9544 1.2251 40.3919 1.44213 40.7581C1.54984 40.9396 1.69225 41.098 1.86116 41.2242C2.03008 41.3504 2.22218 41.4419 2.42644 41.4934C2.63071 41.5449 2.84311 41.5555 3.05146 41.5245C3.25981 41.4936 3.46001 41.4216 3.64057 41.3128C3.69646 41.2792 3.75018 41.2421 3.80143 41.2017C3.83566 41.1742 3.87817 41.159 3.92207 41.1587ZM9.16437 39.68C8.62557 39.6803 8.09381 39.5572 7.60959 39.3203C7.12536 39.0833 6.70144 38.7387 6.37008 38.3126C6.03872 37.8866 5.80866 37.3903 5.69743 36.8617C5.5862 36.333 5.59672 35.7858 5.72819 35.2619C5.89089 34.6187 6.23028 34.0342 6.70776 33.5749C7.18523 33.1155 7.78165 32.7997 8.42921 32.6634C9.07677 32.527 9.74948 32.5756 10.3709 32.8036C10.9923 33.0315 11.5374 33.4298 11.9444 33.953C12.3513 34.4762 12.6037 35.1034 12.6728 35.7633C12.7419 36.4232 12.6251 37.0893 12.3355 37.6859C12.0459 38.2825 11.5952 38.7857 11.0346 39.1382C10.474 39.4907 9.82605 39.6784 9.16437 39.68ZM9.15186 32.973C8.56242 32.9733 7.98491 33.1395 7.48507 33.4528C6.98524 33.7661 6.58317 34.2138 6.32465 34.745C6.06613 35.2762 5.96156 35.8696 6.02283 36.4575C6.08409 37.0453 6.30875 37.6041 6.67121 38.0703C7.03366 38.5364 7.51936 38.8911 8.07299 39.094C8.62662 39.2968 9.22593 39.3397 9.80268 39.2178C10.3794 39.0958 10.9105 38.8139 11.3353 38.4042C11.7601 37.9944 12.0616 37.4733 12.2055 36.9001C12.3221 36.4344 12.3313 35.9482 12.2323 35.4785C12.1334 35.0087 11.9289 34.5678 11.6345 34.1892C11.3401 33.8105 10.9635 33.5042 10.5333 33.2935C10.1031 33.0828 9.63064 32.9732 9.15186 32.973Z" fill="#000032"/>
<path d="M27.4263 67.1774H9.41341C9.36133 67.1772 9.31146 67.1563 9.27464 67.1194C9.23782 67.0825 9.21703 67.0325 9.2168 66.9802V48.2394C9.22016 48.1893 9.24239 48.1424 9.27897 48.1081C9.31556 48.0738 9.36377 48.0547 9.41385 48.0547C9.46394 48.0547 9.51215 48.0738 9.54873 48.1081C9.58532 48.1424 9.60754 48.1893 9.61091 48.2394V66.7822H27.4263C27.4533 66.7804 27.4804 66.7841 27.5059 66.7932C27.5314 66.8023 27.5547 66.8166 27.5745 66.8351C27.5942 66.8536 27.61 66.876 27.6208 66.9009C27.6315 66.9258 27.6371 66.9527 27.6371 66.9798C27.6371 67.0069 27.6315 67.0338 27.6208 67.0586C27.61 67.0835 27.5942 67.1059 27.5745 67.1245C27.5547 67.143 27.5314 67.1572 27.5059 67.1664C27.4804 67.1755 27.4533 67.1792 27.4263 67.1774Z" fill="#000032"/>
<path d="M134.07 92.4904C134.068 92.9878 134.171 93.48 134.374 93.9341C134.576 94.3882 134.873 94.7937 135.245 95.1235C135.616 95.4533 136.053 95.6999 136.527 95.8467C137.001 95.9935 137.501 96.0371 137.993 95.9748C138.336 97.3655 138.886 98.6967 139.623 99.9242C139.229 100.229 138.905 100.614 138.671 101.055C138.437 101.495 138.3 101.98 138.268 102.478C138.236 102.976 138.31 103.474 138.485 103.941C138.661 104.408 138.933 104.832 139.284 105.185C139.636 105.538 140.058 105.812 140.523 105.988C140.989 106.164 141.486 106.239 141.982 106.208C142.479 106.177 142.963 106.04 143.402 105.806C143.842 105.572 144.226 105.248 144.531 104.853C145.752 105.593 147.078 106.145 148.463 106.49C148.406 106.964 148.447 107.445 148.582 107.904C148.717 108.362 148.944 108.788 149.249 109.155C149.555 109.522 149.932 109.823 150.357 110.038C150.782 110.254 151.247 110.38 151.723 110.409C152.198 110.439 152.675 110.37 153.123 110.208C153.572 110.045 153.982 109.793 154.33 109.466C154.677 109.139 154.954 108.744 155.144 108.305C155.334 107.867 155.433 107.394 155.434 106.916C155.433 106.774 155.423 106.631 155.406 106.49C156.791 106.144 158.116 105.593 159.338 104.853C159.632 105.231 160 105.545 160.42 105.775C160.839 106.005 161.301 106.147 161.778 106.191C162.254 106.235 162.734 106.18 163.188 106.031C163.643 105.882 164.062 105.64 164.419 105.322C164.777 105.004 165.066 104.616 165.269 104.182C165.471 103.747 165.583 103.276 165.597 102.797C165.61 102.317 165.526 101.84 165.349 101.395C165.172 100.95 164.905 100.546 164.566 100.207C164.465 100.107 164.358 100.013 164.246 99.926C164.983 98.6992 165.533 97.3685 165.877 95.9784C166.371 96.042 166.872 95.9994 167.348 95.8534C167.824 95.7074 168.264 95.4614 168.638 95.1317C169.011 94.802 169.311 94.3963 169.516 93.9414C169.721 93.4866 169.827 92.9932 169.827 92.494C169.827 91.9949 169.721 91.5014 169.516 91.0466C169.311 90.5918 169.011 90.186 168.638 89.8563C168.264 89.5266 167.824 89.2806 167.348 89.1346C166.872 88.9886 166.371 88.946 165.877 89.0097C165.534 87.6188 164.984 86.2873 164.248 85.0594C164.36 84.9723 164.467 84.8786 164.568 84.7789C165.225 84.121 165.594 83.2283 165.595 82.2973C165.595 81.3663 165.227 80.4732 164.571 79.8145C163.915 79.1558 163.025 78.7854 162.096 78.7848C161.168 78.7842 160.277 79.1535 159.621 79.8114C159.521 79.9127 159.427 80.0198 159.34 80.1322C158.118 79.3929 156.793 78.8416 155.408 78.4967C155.425 78.3551 155.434 78.2127 155.435 78.0701C155.436 77.5908 155.339 77.1163 155.15 76.6761C154.961 76.2358 154.684 75.839 154.337 75.5102C153.989 75.1814 153.578 74.9276 153.128 74.7644C152.679 74.6012 152.201 74.532 151.724 74.5612C151.246 74.5904 150.78 74.7173 150.354 74.9341C149.928 75.1509 149.55 75.4531 149.245 75.8218C148.94 76.1906 148.713 76.6182 148.579 77.0782C148.444 77.5383 148.406 78.021 148.465 78.4967C147.08 78.8414 145.754 79.3927 144.533 80.1322C144.445 80.0198 144.352 79.9127 144.252 79.8114C143.915 79.47 143.511 79.2017 143.066 79.0231C142.622 78.8445 142.145 78.7594 141.666 78.773C141.187 78.7867 140.716 78.8987 140.282 79.1023C139.848 79.3059 139.46 79.5967 139.143 79.9567C138.825 80.3166 138.585 80.7381 138.437 81.195C138.288 81.6519 138.235 82.1344 138.28 82.6128C138.325 83.0911 138.468 83.5551 138.699 83.9759C138.931 84.3968 139.245 84.7655 139.625 85.0594C138.888 86.2872 138.338 87.6187 137.994 89.0097C137.502 88.946 137.002 88.9887 136.527 89.135C136.053 89.2813 135.615 89.5278 135.244 89.8579C134.872 90.188 134.575 90.594 134.373 91.0487C134.171 91.5034 134.068 91.9962 134.072 92.494L134.07 92.4904ZM145.438 92.4904C145.439 91.2019 145.822 89.9428 146.537 88.8722C147.251 87.8015 148.267 86.9674 149.454 86.4754C150.642 85.9833 151.948 85.8554 153.208 86.1077C154.468 86.36 155.625 86.9812 156.533 87.8929C157.441 88.8046 158.059 89.9657 158.309 91.2296C158.56 92.4934 158.43 93.8033 157.938 94.9935C157.446 96.1837 156.613 97.2009 155.544 97.9165C154.476 98.632 153.22 99.0139 151.935 99.0137C150.211 99.0125 148.558 98.3246 147.339 97.1013C146.121 95.8779 145.437 94.2194 145.438 92.4904Z" fill="white"/>
<path d="M139.033 84.6709C139.003 84.6712 138.974 84.6647 138.947 84.652C138.92 84.6393 138.896 84.6206 138.878 84.5974C138.755 84.4434 138.645 84.2794 138.549 84.1072C138.155 83.4052 138 82.5933 138.108 81.7948C138.216 80.9964 138.58 80.2552 139.147 79.6837H139.154L139.159 79.6783C139.741 79.09 140.504 78.7164 141.325 78.6182C141.473 78.6006 141.622 78.5916 141.772 78.5913C142.257 78.5883 142.738 78.682 143.188 78.8669C143.637 79.0518 144.045 79.3243 144.388 79.6685C144.45 79.7303 144.512 79.7984 144.575 79.8728C145.724 79.1955 146.961 78.681 148.251 78.3439C148.243 78.2462 148.238 78.1548 148.238 78.067C148.238 77.0842 148.628 76.1416 149.321 75.4467C150.014 74.7517 150.954 74.3613 151.934 74.3613C152.914 74.3613 153.854 74.7517 154.547 75.4467C155.24 76.1416 155.629 77.0842 155.629 78.067C155.629 78.1566 155.629 78.2462 155.617 78.3439C156.907 78.681 158.144 79.1955 159.293 79.8728C159.356 79.7984 159.417 79.7303 159.48 79.6685C160.138 79.0052 161.021 78.6159 161.954 78.5788C162.886 78.5417 163.798 78.8595 164.506 79.4684C165.214 80.0773 165.667 80.9323 165.773 81.8618C165.879 82.7913 165.63 83.7266 165.077 84.48C165.053 84.5145 165.018 84.5404 164.978 84.5537C164.938 84.5671 164.895 84.5673 164.855 84.5542C164.815 84.5412 164.78 84.5156 164.756 84.4813C164.732 84.447 164.719 84.4057 164.719 84.3635C164.719 84.3216 164.733 84.2807 164.758 84.247C165.245 83.5728 165.462 82.7392 165.365 81.9121C165.268 81.0849 164.864 80.3248 164.233 79.7828C163.602 79.2407 162.791 78.9565 161.961 78.9867C161.131 79.0168 160.343 79.3591 159.753 79.9454C159.658 80.0414 159.569 80.1429 159.485 80.2492C159.456 80.2872 159.413 80.313 159.366 80.3217C159.319 80.3305 159.27 80.3216 159.229 80.2967C158.023 79.5671 156.715 79.0233 155.348 78.6836C155.306 78.6728 155.268 78.6481 155.241 78.6134C155.214 78.5786 155.199 78.5359 155.199 78.4918C155.199 78.4837 155.199 78.4757 155.199 78.4676C155.216 78.3341 155.225 78.1998 155.226 78.0652C155.233 77.6258 155.153 77.1894 154.99 76.7814C154.828 76.3733 154.586 76.0019 154.278 75.6886C153.971 75.3753 153.605 75.1265 153.2 74.9567C152.796 74.7868 152.362 74.6994 151.924 74.6994C151.486 74.6994 151.052 74.7868 150.648 74.9567C150.244 75.1265 149.877 75.3753 149.57 75.6886C149.263 76.0019 149.021 76.3733 148.858 76.7814C148.695 77.1894 148.615 77.6258 148.623 78.0652C148.623 78.1998 148.632 78.3341 148.649 78.4676C148.65 78.4757 148.65 78.4837 148.649 78.4918C148.649 78.5359 148.635 78.5786 148.608 78.6134C148.581 78.6481 148.543 78.6728 148.5 78.6836C147.134 79.0233 145.826 79.5671 144.621 80.2967C144.579 80.3216 144.53 80.3306 144.483 80.3218C144.436 80.3131 144.393 80.2872 144.363 80.2492C144.28 80.1426 144.191 80.0412 144.095 79.9454C143.789 79.6378 143.425 79.3937 143.024 79.2272C142.624 79.0607 142.194 78.975 141.76 78.975C141.327 78.975 140.897 79.0607 140.497 79.2272C140.096 79.3937 139.732 79.6378 139.426 79.9454V79.9508C138.921 80.4618 138.597 81.1233 138.5 81.8357C138.403 82.548 138.54 83.2726 138.89 83.9002C138.949 84.0062 139.014 84.1091 139.084 84.2085L139.089 84.2139C139.12 84.2569 139.152 84.3035 139.185 84.342C139.208 84.3712 139.222 84.4062 139.226 84.443C139.23 84.4798 139.223 84.517 139.207 84.5503C139.191 84.5836 139.166 84.6117 139.135 84.6315C139.104 84.6512 139.068 84.6618 139.031 84.662L139.033 84.6709Z" fill="#000032"/>
<path d="M130.306 37.627H81.0605V72.0598H130.306V37.627Z" fill="#FFECE3"/>
<path d="M86.0936 66.7644C86.0396 66.7646 85.9867 66.7497 85.9407 66.7213C85.8739 66.6805 85.8259 66.6147 85.8073 66.5385C85.7887 66.4622 85.801 66.3816 85.8415 66.3145L97.9955 46.2814C98.0212 46.239 98.0571 46.2037 98.0998 46.1788C98.1426 46.154 98.1909 46.1402 98.2404 46.1389C98.29 46.137 98.3392 46.1479 98.3834 46.1707C98.4275 46.1935 98.4651 46.2273 98.4924 46.2688L112.038 66.3019C112.082 66.3669 112.098 66.4468 112.083 66.5239C112.069 66.6011 112.024 66.6692 111.959 66.7133C111.894 66.7574 111.815 66.7738 111.738 66.759C111.661 66.7442 111.593 66.6994 111.549 66.6344L98.2574 46.984L86.3465 66.6236C86.32 66.667 86.2828 66.7027 86.2384 66.7273C86.1941 66.752 86.1442 66.7647 86.0936 66.7644Z" fill="white"/>
<path d="M125.14 66.7651C125.095 66.7653 125.051 66.7552 125.011 66.7358C124.971 66.7164 124.936 66.6881 124.908 66.6531L111.115 49.2055L106.86 55.2143C106.837 55.246 106.809 55.2729 106.776 55.2935C106.743 55.3142 106.706 55.3281 106.668 55.3345C106.63 55.341 106.591 55.3398 106.553 55.3311C106.515 55.3224 106.48 55.3063 106.448 55.2838C106.417 55.2613 106.39 55.2327 106.369 55.1998C106.349 55.1668 106.335 55.1302 106.328 55.0918C106.322 55.0535 106.323 55.0143 106.332 54.9764C106.34 54.9385 106.356 54.9028 106.379 54.8711L110.862 48.5414C110.888 48.5038 110.923 48.4729 110.963 48.4513C111.003 48.4296 111.048 48.4179 111.094 48.4169C111.14 48.4132 111.186 48.4216 111.228 48.4412C111.27 48.4608 111.307 48.491 111.333 48.5289L125.37 66.2875C125.405 66.3309 125.427 66.3833 125.433 66.4387C125.44 66.494 125.43 66.55 125.406 66.6002C125.382 66.6503 125.344 66.6926 125.297 66.7221C125.25 66.7516 125.195 66.7672 125.14 66.7669V66.7651Z" fill="white"/>
<path d="M120.593 48.9818C119.996 48.9825 119.411 48.8054 118.914 48.4729C118.416 48.1403 118.029 47.6673 117.799 47.1136C117.57 46.56 117.51 45.9506 117.626 45.3626C117.742 44.7746 118.03 44.2344 118.452 43.8103C118.875 43.3862 119.413 43.0973 120 42.9802C120.586 42.8631 121.194 42.9231 121.746 43.1524C122.298 43.3818 122.77 43.7703 123.102 44.2688C123.434 44.7672 123.612 45.3533 123.611 45.9527C123.611 46.7555 123.293 47.5253 122.727 48.0931C122.161 48.661 121.394 48.9806 120.593 48.9818ZM120.593 43.5151C120.113 43.5144 119.642 43.6568 119.242 43.9242C118.842 44.1916 118.53 44.5721 118.345 45.0174C118.161 45.4628 118.112 45.953 118.205 46.4261C118.299 46.8992 118.53 47.3338 118.87 47.6751C119.21 48.0164 119.643 48.2489 120.114 48.3432C120.586 48.4376 121.075 48.3895 121.519 48.2051C121.964 48.0207 122.343 47.7083 122.611 47.3074C122.878 46.9064 123.021 46.435 123.021 45.9527C123.02 45.307 122.764 44.6878 122.309 44.2309C121.854 43.774 121.237 43.5166 120.593 43.5151Z" fill="white"/>
<path d="M100.385 62.8992C100.248 62.899 100.112 62.8886 99.9764 62.8678C98.7047 62.6689 97.7422 61.5675 97.0398 60.6274C96.9388 60.493 96.8396 60.3585 96.7395 60.2196C96.1336 59.3916 95.5071 58.5348 94.684 58.0688C94.4312 57.9267 94.1527 57.8363 93.8647 57.8031C93.5767 57.7699 93.2851 57.7944 93.0066 57.8752C92.8076 57.9354 92.6234 58.0366 92.4658 58.1724C92.3082 58.3082 92.1807 58.4756 92.0915 58.6639C92.075 58.6992 92.0517 58.7309 92.023 58.7572C91.9943 58.7835 91.9607 58.8038 91.9242 58.8171C91.8876 58.8304 91.8488 58.8363 91.81 58.8345C91.7711 58.8328 91.733 58.8233 91.6978 58.8068C91.6626 58.7903 91.631 58.7669 91.6048 58.7381C91.5786 58.7094 91.5583 58.6757 91.545 58.639C91.5318 58.6024 91.5259 58.5634 91.5276 58.5245C91.5294 58.4856 91.5388 58.4473 91.5553 58.412C91.6778 58.1493 91.8543 57.9155 92.0731 57.7259C92.292 57.5362 92.5482 57.395 92.8252 57.3115C93.1805 57.2047 93.5537 57.171 93.9223 57.2126C94.2909 57.2542 94.6473 57.3701 94.97 57.5535C95.9021 58.0804 96.5661 58.9874 97.2042 59.8674C97.3034 60.0027 97.4017 60.1363 97.5018 60.2707C98.1336 61.1185 98.996 62.1123 100.057 62.2781C100.893 62.4099 101.858 61.9851 102.632 61.1445C103.367 60.3478 103.876 59.3073 104.369 58.3018C104.403 58.2313 104.464 58.1775 104.538 58.1521C104.612 58.1267 104.694 58.1319 104.764 58.1665C104.834 58.2011 104.888 58.2622 104.913 58.3365C104.938 58.4108 104.933 58.4921 104.899 58.5626C104.388 59.6066 103.859 60.6865 103.066 61.5469C102.273 62.4072 101.312 62.8992 100.385 62.8992Z" fill="white"/>
<path d="M54.9825 75.4238H32.0204C29.1057 79.4369 27.1817 84.0859 26.4063 88.9892L15.6161 157.278C15.5643 157.511 15.5655 157.754 15.6196 157.987C15.6736 158.22 15.7791 158.438 15.9284 158.624C16.0776 158.811 16.2668 158.962 16.4818 159.066C16.6969 159.169 16.9325 159.223 17.1711 159.223H35.9275C36.5214 159.223 37.0937 159 37.5315 158.597C37.9693 158.195 38.241 157.642 38.2931 157.049L42.2512 112.138L50.0315 157.417C50.1181 157.922 50.3799 158.38 50.7707 158.711C51.1614 159.041 51.6561 159.223 52.1674 159.223H71.7388C71.9787 159.223 72.2154 159.169 72.4314 159.065C72.6475 158.96 72.8375 158.809 72.9872 158.621C73.1369 158.433 73.2426 158.214 73.2965 157.979C73.3503 157.745 73.351 157.502 73.2983 157.267L54.9825 75.4238Z" fill="white"/>
<path d="M52.1659 159.417C51.6078 159.417 51.0675 159.22 50.641 158.859C50.2145 158.498 49.9293 157.997 49.8361 157.445L42.3132 113.662L38.4909 157.063C38.4378 157.707 38.1441 158.308 37.6685 158.744C37.1929 159.18 36.5706 159.421 35.9261 159.417H17.1696C16.9013 159.417 16.6363 159.357 16.3943 159.241C16.1523 159.125 15.9395 158.955 15.7716 158.745C15.6038 158.535 15.4853 158.29 15.4248 158.028C15.3644 157.766 15.3636 157.493 15.4225 157.231L26.2109 88.9567C26.9959 84.0237 28.9314 79.3463 31.8599 75.3053C31.8781 75.2802 31.902 75.2597 31.9297 75.2457C31.9574 75.2317 31.9879 75.2245 32.0189 75.2246H54.981C55.0257 75.2244 55.069 75.2396 55.1039 75.2677C55.1387 75.2958 55.1628 75.335 55.1722 75.3788L73.4926 157.22C73.5518 157.484 73.5512 157.757 73.4908 158.02C73.4303 158.284 73.3116 158.53 73.1434 158.741C72.9752 158.952 72.7618 159.122 72.519 159.239C72.2762 159.356 72.0103 159.417 71.741 159.417H52.1659ZM42.2542 111.937C42.3005 111.937 42.3452 111.954 42.3805 111.984C42.4158 112.014 42.4394 112.056 42.4472 112.101L50.2249 157.38C50.3025 157.84 50.5402 158.257 50.8957 158.558C51.2513 158.859 51.7017 159.023 52.1668 159.022H71.7383C71.9486 159.022 72.1562 158.974 72.3457 158.883C72.5352 158.791 72.7017 158.658 72.833 158.494C72.9643 158.329 73.057 158.137 73.1041 157.931C73.1513 157.725 73.1518 157.512 73.1056 157.306L54.8228 75.6189H32.119C29.2599 79.5913 27.3695 84.1807 26.5997 89.0185L15.8086 157.307C15.7614 157.514 15.7614 157.728 15.8086 157.935C15.8558 158.142 15.949 158.335 16.0811 158.501C16.2115 158.665 16.3771 158.797 16.5655 158.888C16.754 158.979 16.9605 159.025 17.1696 159.025H35.9261C36.4715 159.027 36.9977 158.823 37.3997 158.454C37.8018 158.084 38.05 157.576 38.095 157.031L42.054 112.12C42.0585 112.073 42.0799 112.028 42.1144 111.995C42.1489 111.962 42.1941 111.943 42.2417 111.941L42.2542 111.937Z" fill="#000032"/>
<path d="M42.2547 111.475C42.2082 111.475 42.1633 111.459 42.1278 111.428C42.0923 111.398 42.0686 111.357 42.0608 111.311L40.0742 99.5366C39.9178 99.1781 38.2975 95.4411 38.21 94.5646C38.2074 94.5389 38.2099 94.5128 38.2173 94.488C38.2248 94.4632 38.237 94.4401 38.2534 94.4201C38.2697 94.4 38.2899 94.3834 38.3126 94.3711C38.3354 94.3589 38.3603 94.3512 38.386 94.3486C38.4117 94.3461 38.4377 94.3486 38.4624 94.356C38.4872 94.3635 38.5102 94.3758 38.5302 94.3922C38.5502 94.4086 38.5668 94.4288 38.579 94.4516C38.5912 94.4744 38.5988 94.4994 38.6014 94.5252C38.6711 95.2224 39.9553 98.2811 40.4442 99.4004C40.451 99.4152 40.4558 99.4309 40.4585 99.447L42.4513 111.245C42.4562 111.274 42.4547 111.303 42.4472 111.33C42.4396 111.358 42.426 111.384 42.4075 111.406C42.3889 111.428 42.3658 111.445 42.3397 111.457C42.3136 111.469 42.2852 111.476 42.2565 111.475H42.2547Z" fill="#000032"/>
<path d="M33.3505 56.301C33.6552 55.3089 36.1209 52.1867 36.7348 51.3532C38.154 49.4327 43.8047 50.2303 46.1729 49.9659C49.1471 49.6335 55.208 48.5876 59.125 50.9652C62.9579 53.2907 64.386 58.0602 66.218 60.5955C68.0224 59.3328 69.4728 58.217 71.3585 56.81L77.6696 63.7706C77.3309 64.1829 70.7785 73.8598 64.8311 73.1805C61.3681 72.7852 60.3332 70.8504 58.1088 68.5203C58.1088 68.5203 58.0606 78.2214 54.9658 77.2509C42.2032 73.2504 35.2388 79.8856 29.6292 77.9454C28.2699 77.4794 32.4818 59.1195 33.3505 56.301Z" fill="#FF4E00"/>
<path d="M58.0613 68.6255C58.0275 68.6257 57.9942 68.617 57.9647 68.6004C57.9353 68.5837 57.9106 68.5596 57.8933 68.5305C56.9781 67.0169 55.2918 63.8202 54.3936 61.2169C54.3852 61.1924 54.3816 61.1665 54.3832 61.1406C54.3847 61.1148 54.3913 61.0895 54.4026 61.0662C54.4139 61.0428 54.4296 61.022 54.4489 61.0048C54.4683 60.9876 54.4908 60.9744 54.5152 60.9659C54.5396 60.9575 54.5654 60.9539 54.5912 60.9554C54.617 60.957 54.6422 60.9636 54.6655 60.9749C54.6887 60.9862 54.7095 61.002 54.7266 61.0214C54.7438 61.0408 54.757 61.0633 54.7654 61.0878C55.6537 63.6625 57.324 66.8233 58.2293 68.3262C58.2476 68.356 58.2577 68.3903 58.2584 68.4253C58.2591 68.4604 58.2504 68.495 58.2333 68.5256C58.2161 68.5561 58.1911 68.5815 58.1609 68.5991C58.1306 68.6167 58.0962 68.6258 58.0613 68.6255Z" fill="#000032"/>
<path d="M77.5587 63.8301C78.6142 61.578 82.7751 56.7817 84.7483 55.9232C88.0666 54.4812 85.8002 53.9005 85.8002 53.9005C85.8002 53.9005 87.2873 53.4605 87.1103 52.6396C86.903 51.6726 84.0674 52.8188 83.1469 53.1056C82.8975 53.1881 82.742 53.2364 82.742 53.2364C82.742 53.2364 82.8984 53.1818 83.1469 53.1056C84.1603 52.7668 86.8109 51.7685 86.8735 51.0695C86.9521 50.1975 85.7573 50.3051 85.7573 50.3051C85.7573 50.3051 86.4722 49.9152 85.9468 49.2628C85.4776 48.6758 79.3934 49.2234 75.1619 53.016C74.5613 53.5537 71.5988 56.6455 71.127 57.1097L77.5587 63.8301Z" fill="white"/>
<path d="M77.5579 64.0261C77.5289 64.0265 77.5001 64.02 77.4739 64.0072C77.4275 63.9841 77.3921 63.9436 77.3754 63.8944C77.3587 63.8452 77.362 63.7914 77.3846 63.7447C78.4829 61.4021 82.6572 56.6183 84.6743 55.7409C86.2739 55.0455 86.3723 54.6306 86.3615 54.5203C86.3454 54.3106 85.946 54.1404 85.7547 54.0911C85.7132 54.0801 85.6764 54.0558 85.6499 54.0219C85.6234 53.988 85.6086 53.9464 85.6078 53.9033C85.607 53.8603 85.6202 53.8181 85.6454 53.7833C85.6706 53.7484 85.7065 53.7228 85.7476 53.7102C85.761 53.7102 87.0559 53.3015 86.9219 52.6796C86.9159 52.6482 86.9028 52.6186 86.8836 52.5931C86.8644 52.5676 86.8395 52.5469 86.811 52.5326C86.299 52.2414 84.6314 52.8113 83.7359 53.1169C83.5277 53.1886 83.3463 53.2505 83.2077 53.2962C82.9611 53.3786 82.8038 53.4279 82.8038 53.4279C82.7552 53.4407 82.7036 53.4343 82.6594 53.4103C82.6153 53.3862 82.582 53.3461 82.5662 53.2983C82.5505 53.2504 82.5536 53.1983 82.5748 53.1526C82.596 53.107 82.6338 53.0711 82.6805 53.0524C82.6805 53.0524 82.8396 52.9968 83.0925 52.9189C85.0684 52.2593 86.6457 51.4393 86.6806 51.0539C86.6913 50.9913 86.6875 50.9269 86.6694 50.866C86.6512 50.805 86.6193 50.7491 86.576 50.7026C86.3758 50.5001 85.9326 50.4902 85.778 50.5037C85.7328 50.5078 85.6876 50.4962 85.65 50.4708C85.6124 50.4453 85.5847 50.4076 85.5717 50.3641C85.5586 50.3205 85.561 50.2737 85.5784 50.2317C85.5958 50.1897 85.6272 50.155 85.6671 50.1336C85.6671 50.1336 85.8986 50.0009 85.9352 49.7939C85.9594 49.672 85.9111 49.5358 85.794 49.3888C85.3561 48.9363 79.449 49.4444 75.2934 53.1653C74.9019 53.5157 73.4712 54.989 72.4256 56.0653C71.8679 56.6398 71.4273 57.0933 71.2638 57.2528C71.2455 57.2717 71.2237 57.2868 71.1995 57.2971C71.1754 57.3075 71.1494 57.3128 71.1231 57.313C71.0969 57.3131 71.0709 57.3079 71.0466 57.2977C71.0224 57.2876 71.0004 57.2727 70.982 57.2539C70.9636 57.2351 70.9492 57.2127 70.9395 57.1883C70.9299 57.1638 70.9252 57.1376 70.9258 57.1112C70.9264 57.0849 70.9323 57.059 70.9431 57.0349C70.9538 57.0109 70.9693 56.9893 70.9885 56.9714C71.1476 56.8146 71.6087 56.3396 72.1432 55.7902C73.1932 54.7068 74.6294 53.2308 75.0306 52.8723C78.7313 49.5564 83.6626 48.7427 85.341 48.8843C85.8709 48.9282 86.0282 49.0528 86.0997 49.1433C86.2945 49.3862 86.3678 49.6326 86.3204 49.8737C86.3014 49.9653 86.266 50.0528 86.2159 50.1318C86.4521 50.1613 86.6734 50.2633 86.8495 50.4239C86.9336 50.5112 86.997 50.6165 87.0349 50.7318C87.0728 50.847 87.0842 50.9694 87.0684 51.0898C87.0389 51.416 86.6216 51.7628 86.0612 52.0863C86.4527 52.0433 86.7762 52.0666 87.0005 52.193C87.0771 52.2352 87.1438 52.2934 87.1959 52.3638C87.248 52.4342 87.2844 52.515 87.3026 52.6007C87.442 53.2531 86.7967 53.686 86.3195 53.9109C86.5269 54.0346 86.7261 54.2228 86.7485 54.4926C86.7887 55.007 86.1774 55.5196 84.8244 56.1057C82.9236 56.9311 78.7921 61.662 77.734 63.9149C77.718 63.9482 77.6931 63.9762 77.6619 63.9959C77.6308 64.0156 77.5947 64.026 77.5579 64.0261Z" fill="#000032"/>
<path d="M83.233 55.0225C83.1893 55.0228 83.1466 55.0084 83.1119 54.9817C83.0772 54.9549 83.0524 54.9173 83.0414 54.8748C83.0305 54.8323 83.0339 54.7874 83.0513 54.7471C83.0687 54.7068 83.099 54.6735 83.1374 54.6524C83.2053 54.6139 84.8184 53.7356 85.6397 53.7562C85.6918 53.7581 85.741 53.7805 85.7766 53.8186C85.8123 53.8567 85.8315 53.9074 85.83 53.9596C85.8298 53.9857 85.8244 54.0114 85.814 54.0353C85.8037 54.0592 85.7886 54.0807 85.7697 54.0986C85.7509 54.1165 85.7286 54.1304 85.7043 54.1395C85.6799 54.1486 85.654 54.1526 85.6281 54.1514H85.6021C84.9989 54.1514 83.7603 54.7635 83.3286 55.0019C83.299 55.0168 83.2661 55.0239 83.233 55.0225Z" fill="#000032"/>
<path d="M81.6995 51.8364C81.6555 51.836 81.6128 51.8208 81.5784 51.7933C81.5439 51.7658 81.5196 51.7275 81.5094 51.6845C81.4991 51.6416 81.5034 51.5964 81.5217 51.5562C81.54 51.516 81.5711 51.4831 81.6102 51.4627C82.5852 50.9653 83.9882 50.5074 85.4601 50.208C85.4857 50.2022 85.5121 50.2016 85.5379 50.2061C85.5637 50.2107 85.5883 50.2204 85.6103 50.2346C85.6323 50.2488 85.6512 50.2673 85.666 50.289C85.6808 50.3107 85.6911 50.3351 85.6964 50.3608C85.7016 50.3866 85.7017 50.4131 85.6965 50.4388C85.6914 50.4646 85.6812 50.4891 85.6665 50.5108C85.6519 50.5325 85.633 50.5511 85.6111 50.5655C85.5891 50.5798 85.5645 50.5896 85.5388 50.5943C84.1 50.89 82.7335 51.3354 81.7853 51.8176C81.7585 51.8302 81.7292 51.8366 81.6995 51.8364Z" fill="#000032"/>
<path d="M55.3193 34.7189C55.3193 34.7189 59.4418 40.9025 56.9851 43.8787C54.5284 46.8549 48.8223 43.8061 48.8223 43.8061C48.8223 43.8061 51.7499 33.2931 55.3193 34.7189Z" fill="white"/>
<path d="M53.8235 45.3911C51.4035 45.3911 48.8824 44.0683 48.7296 43.9841C48.69 43.9629 48.6587 43.9288 48.641 43.8874C48.6233 43.8461 48.6202 43.7999 48.6322 43.7565C48.7215 43.4428 50.8065 36.0592 53.6778 34.6343C54.2552 34.3484 54.8325 34.3153 55.3919 34.5393C55.4282 34.5545 55.4593 34.5801 55.4813 34.6128C55.6529 34.8709 59.6565 40.9577 57.1355 44.0083C56.2758 45.0443 55.0622 45.3911 53.8235 45.3911ZM49.0522 43.7072C49.9378 44.1427 54.7127 46.3168 56.8272 43.7565C59.0462 41.068 55.5671 35.4839 55.1828 34.8843C54.744 34.7257 54.3061 34.7598 53.8423 34.9883C51.3516 36.2268 49.3721 42.6237 49.0522 43.7072Z" fill="#000032"/>
<path d="M35.9153 67.7614C37.4247 68.7651 39.2219 69.3028 41.0262 69.3745C43.146 69.4641 45.2667 68.9264 47.1533 67.9675C48.6636 67.2031 50.0559 66.125 51.0041 64.7046C51.4641 64.0267 51.7869 63.2649 51.9541 62.4623C52.1507 61.4658 52.0551 60.4459 51.8334 59.4619C51.6038 58.4358 51.2275 57.4527 50.9549 56.4391C50.711 55.534 50.5412 54.55 50.7762 53.6251C51.223 51.8821 53.0426 51.0343 53.8228 49.483C54.6396 47.86 54.2401 45.9422 53.6485 44.3175C53.3196 43.4123 52.8442 42.5475 52.6306 41.6039C52.4349 40.7426 52.5868 39.8957 53.1668 39.2218C53.6404 38.6734 54.2741 38.288 54.8809 37.9062C55.4877 37.5245 56.1257 37.1284 56.6396 36.6041C57.88 35.3396 57.9989 33.3779 57.4564 31.7647C57.1803 30.9412 56.6923 30.1866 55.8845 29.8129C55.1633 29.4804 54.3402 29.4965 53.5752 29.6399C52.7137 29.8012 51.9013 30.1292 51.0917 30.4554C50.3493 30.7542 49.6085 31.0586 48.8691 31.3686C48.6904 31.3409 48.5054 31.3149 48.3213 31.296C47.3382 31.1939 46.34 31.2297 45.3909 31.5156C44.4723 31.8045 43.6395 32.3175 42.9673 33.0086C41.6268 34.3529 40.7125 36.156 40.1075 37.9376C39.7958 38.8519 39.5684 39.7929 39.4283 40.7489C39.2889 41.6997 39.2594 42.6578 39.2299 43.6167C39.2004 44.5756 39.1656 45.5623 38.9618 46.514C38.7745 47.4265 38.3945 48.2882 37.8474 49.0412C37.2969 49.7976 36.6168 50.4482 35.9564 51.1024C35.296 51.7385 34.6878 52.4269 34.1378 53.1609C33.0534 54.635 32.3239 56.3407 32.0064 58.1446C31.3924 61.7857 32.7973 65.6886 35.9153 67.7614Z" fill="#000032"/>
<path d="M158.523 125.074C162.234 129.107 165.51 133.14 165.51 133.14C165.51 133.14 174.693 113.556 176.461 111.552C180.359 107.13 182.442 107.257 200.44 107.802C218.437 108.348 228.487 106.959 233.327 119.976C238.167 132.993 245.034 147.469 235.768 153.403C235.768 153.403 232.345 155.383 228.661 155.278H187.499L184.393 141.952C184.393 141.952 177.591 151.757 168.313 152.147C160.449 152.478 152.533 140.807 148.439 133.18C154.441 131.06 157.237 127.592 158.523 125.074Z" fill="#FF4E00"/>
<path d="M130.662 119.046C130.662 119.046 129.832 118.16 130.094 117.349C130.357 116.538 131.142 116.42 132.404 117.017C132.404 117.017 131.689 115.896 132.978 115.605C134.268 115.315 135.99 117.065 138.767 117.642C141.543 118.219 142.52 118.406 142.52 118.406C142.52 118.406 141.94 117.252 140.328 116.255C138.716 115.257 138.934 113.868 139.692 113.352C140.34 112.912 141.512 113.397 142.52 114.181C143.845 115.211 147.154 116.058 149.83 117.269C151.866 118.192 155.355 121.634 158.526 125.08C157.24 127.597 154.444 131.065 148.442 133.189C147.709 131.821 147.102 130.583 146.631 129.568C146.631 129.568 145.36 128.447 142.198 128.006C139.036 127.564 134.876 127.242 132.463 125.291C130.051 123.34 129.811 121.832 130.555 120.923C130.553 120.919 129.685 119.967 130.662 119.046Z" fill="white"/>
<path d="M148.441 133.381C148.404 133.382 148.368 133.373 148.337 133.355C148.305 133.336 148.279 133.31 148.262 133.277C147.594 132.032 146.972 130.791 146.464 129.686C146.257 129.524 144.961 128.587 142.164 128.196C141.791 128.144 141.404 128.094 141.007 128.042C137.958 127.645 134.503 127.195 132.333 125.443C130.88 124.267 130.091 123.167 129.99 122.173C129.939 121.734 130.049 121.291 130.299 120.926C130.006 120.517 129.758 119.752 130.389 119.038C130.15 118.735 129.668 118.004 129.899 117.291C130.016 116.932 130.228 116.679 130.524 116.548C130.9 116.385 131.406 116.42 132.032 116.653C131.977 116.445 131.988 116.226 132.063 116.025C132.188 115.721 132.478 115.514 132.923 115.414C133.658 115.248 134.465 115.656 135.486 116.171C136.42 116.643 137.478 117.177 138.793 117.451C140.523 117.809 141.558 118.019 142.089 118.125C141.578 117.443 140.941 116.865 140.213 116.422C139.096 115.729 138.914 114.927 138.906 114.512C138.898 114.253 138.954 113.996 139.07 113.765C139.186 113.533 139.359 113.335 139.571 113.188C140.35 112.659 141.662 113.278 142.629 114.025C143.405 114.627 144.941 115.19 146.568 115.781C147.681 116.187 148.832 116.606 149.899 117.09C151.639 117.878 154.587 120.52 158.657 124.945C158.693 124.983 158.712 125.034 158.71 125.087C158.708 125.139 158.685 125.189 158.646 125.224C158.608 125.26 158.557 125.279 158.505 125.277C158.453 125.275 158.403 125.252 158.368 125.214C154.388 120.89 151.403 118.205 149.736 117.45C148.682 116.973 147.538 116.554 146.429 116.152C144.773 115.548 143.212 114.978 142.383 114.338C141.306 113.5 140.286 113.173 139.787 113.516C139.63 113.626 139.502 113.774 139.416 113.946C139.33 114.118 139.288 114.309 139.295 114.502C139.306 115.081 139.705 115.643 140.416 116.085C142.056 117.104 142.655 118.269 142.68 118.319C142.697 118.351 142.704 118.388 142.7 118.425C142.697 118.462 142.684 118.497 142.661 118.526C142.639 118.555 142.609 118.578 142.575 118.591C142.541 118.604 142.503 118.608 142.467 118.601C142.458 118.601 141.458 118.408 138.714 117.837C137.347 117.553 136.212 116.982 135.308 116.523C134.357 116.043 133.61 115.665 133.009 115.799C132.696 115.869 132.5 115.996 132.427 116.174C132.318 116.437 132.484 116.801 132.557 116.912C132.58 116.949 132.59 116.991 132.587 117.034C132.584 117.076 132.566 117.116 132.538 117.149C132.51 117.181 132.473 117.203 132.431 117.211C132.389 117.22 132.346 117.215 132.307 117.197C131.592 116.858 131.027 116.758 130.68 116.909C130.485 116.998 130.35 117.158 130.269 117.411C130.046 118.101 130.785 118.904 130.793 118.912C130.829 118.95 130.847 119.001 130.846 119.053C130.844 119.105 130.822 119.154 130.784 119.19C129.959 119.97 130.656 120.755 130.685 120.788C130.717 120.823 130.735 120.869 130.737 120.916C130.738 120.963 130.722 121.01 130.692 121.046C130.568 121.196 130.475 121.369 130.421 121.556C130.366 121.743 130.35 121.939 130.373 122.132C130.463 123.005 131.223 124.043 132.573 125.136C134.656 126.821 138.053 127.263 141.05 127.654C141.448 127.705 141.836 127.756 142.212 127.808C145.395 128.256 146.693 129.369 146.746 129.417C146.767 129.435 146.784 129.458 146.795 129.483C147.304 130.59 147.929 131.838 148.602 133.093C148.614 133.116 148.622 133.141 148.625 133.167C148.628 133.193 148.625 133.219 148.618 133.244C148.61 133.269 148.598 133.292 148.582 133.312C148.565 133.333 148.545 133.349 148.522 133.362C148.497 133.374 148.469 133.381 148.441 133.381Z" fill="#000032"/>
<path d="M139.235 123.772C137.395 123.771 135.589 123.276 134.004 122.338C133.813 122.224 133.625 122.104 133.437 121.98C133.123 121.778 132.797 121.57 132.463 121.401C131.865 121.099 131.316 120.971 130.827 121.017C130.775 121.022 130.723 121.005 130.683 120.972C130.643 120.938 130.617 120.89 130.612 120.838C130.61 120.812 130.612 120.786 130.62 120.761C130.628 120.736 130.64 120.713 130.657 120.693C130.673 120.673 130.694 120.656 130.717 120.644C130.74 120.632 130.765 120.625 130.791 120.623C131.354 120.567 131.977 120.713 132.642 121.047C132.988 121.229 133.325 121.429 133.651 121.645C133.835 121.763 134.019 121.881 134.206 121.992C135.985 123.044 138.047 123.511 140.104 123.33C140.13 123.328 140.156 123.331 140.18 123.338C140.205 123.346 140.228 123.359 140.248 123.375C140.268 123.392 140.284 123.412 140.296 123.435C140.308 123.458 140.316 123.483 140.318 123.509C140.32 123.535 140.318 123.561 140.31 123.586C140.302 123.61 140.29 123.633 140.273 123.653C140.257 123.673 140.236 123.69 140.213 123.702C140.191 123.714 140.166 123.721 140.14 123.724C139.839 123.76 139.536 123.772 139.235 123.772Z" fill="#000032"/>
<path d="M140.373 121.866H140.356C138.515 121.71 136.719 121.211 135.06 120.395C134.844 120.291 134.632 120.179 134.419 120.068C133.963 119.82 133.493 119.598 133.011 119.404C132.215 119.103 131.497 119.026 130.879 119.172C130.853 119.179 130.827 119.181 130.8 119.178C130.774 119.175 130.749 119.166 130.726 119.152C130.703 119.139 130.683 119.121 130.667 119.099C130.651 119.078 130.64 119.053 130.634 119.027C130.628 119.001 130.627 118.974 130.632 118.948C130.637 118.922 130.646 118.897 130.661 118.875C130.675 118.852 130.694 118.833 130.717 118.818C130.739 118.804 130.764 118.793 130.79 118.789C131.486 118.622 132.281 118.705 133.152 119.035C133.648 119.234 134.132 119.462 134.602 119.718C134.812 119.827 135.021 119.937 135.234 120.041C136.85 120.835 138.599 121.321 140.391 121.475C140.441 121.48 140.488 121.504 140.521 121.542C140.554 121.58 140.571 121.629 140.569 121.68C140.567 121.73 140.546 121.778 140.51 121.813C140.474 121.848 140.426 121.868 140.375 121.869L140.373 121.866Z" fill="#000032"/>
<path d="M140.688 120.549H140.655C137.776 120.073 135.026 119.007 132.576 117.417C132.554 117.403 132.535 117.385 132.521 117.364C132.506 117.342 132.496 117.318 132.491 117.293C132.485 117.267 132.485 117.241 132.49 117.216C132.494 117.19 132.504 117.166 132.518 117.144C132.532 117.123 132.55 117.104 132.572 117.089C132.593 117.075 132.617 117.064 132.642 117.059C132.668 117.054 132.694 117.053 132.719 117.058C132.744 117.063 132.769 117.072 132.79 117.087C135.194 118.647 137.893 119.693 140.719 120.159C140.769 120.165 140.814 120.191 140.846 120.23C140.878 120.27 140.893 120.319 140.889 120.37C140.885 120.42 140.862 120.467 140.824 120.501C140.787 120.535 140.738 120.553 140.688 120.551V120.549Z" fill="#000032"/>
<path d="M170.437 139.419C170.408 139.419 170.379 139.412 170.352 139.4C170.325 139.387 170.302 139.368 170.284 139.344L165.613 133.492C165.597 133.472 165.585 133.449 165.578 133.424C165.571 133.399 165.569 133.373 165.572 133.347C165.574 133.322 165.582 133.297 165.595 133.274C165.607 133.251 165.624 133.231 165.644 133.215C165.664 133.199 165.688 133.187 165.712 133.18C165.737 133.172 165.763 133.17 165.789 133.173C165.815 133.176 165.839 133.184 165.862 133.196C165.885 133.209 165.905 133.226 165.921 133.246L170.591 139.098C170.614 139.127 170.629 139.162 170.633 139.199C170.638 139.236 170.631 139.273 170.615 139.307C170.599 139.341 170.574 139.369 170.542 139.389C170.511 139.409 170.475 139.419 170.437 139.419Z" fill="#000032"/>
<path d="M184.3 141.826C184.257 141.826 184.216 141.812 184.182 141.786C184.148 141.761 184.123 141.725 184.111 141.684L179.335 125.204C179.326 125.179 179.323 125.152 179.325 125.126C179.327 125.099 179.334 125.073 179.346 125.05C179.359 125.026 179.376 125.005 179.396 124.988C179.417 124.971 179.44 124.959 179.466 124.951C179.491 124.944 179.518 124.942 179.544 124.945C179.571 124.948 179.596 124.957 179.619 124.97C179.642 124.983 179.662 125.001 179.678 125.022C179.694 125.044 179.706 125.068 179.712 125.094L184.489 141.574C184.497 141.599 184.499 141.625 184.496 141.65C184.493 141.676 184.485 141.701 184.473 141.724C184.461 141.747 184.444 141.767 184.424 141.783C184.403 141.799 184.38 141.811 184.355 141.818C184.337 141.824 184.319 141.826 184.3 141.826Z" fill="#000032"/>
<path d="M222.74 130.621C222.74 130.621 218.719 140.718 210.124 141.603L208.047 138.996C207.484 138.292 206.779 137.715 205.978 137.303C205.177 136.892 204.298 136.656 203.4 136.609C201.996 136.534 200.349 136.34 199.21 135.86C196.838 134.864 197.359 133.571 202.639 134.106C202.639 134.106 197.794 132.314 196.809 131.884C195.823 131.454 194.805 128.721 199.197 129.857C199.197 129.857 196.402 128.675 195.953 127.899C195.503 127.123 195.977 125.991 199.746 126.95C199.746 126.95 196.529 126.213 196.407 125.199C196.284 124.186 197.741 123.317 204.11 125.146C208.855 126.508 209.511 127.016 209.275 125.514C209.018 123.869 204.079 122.819 206.384 121.502C207.868 120.656 218.391 123.384 222.74 130.621Z" fill="white"/>
<path d="M203.412 131.307C203.393 131.308 203.373 131.304 203.355 131.298L199.469 130.105C199.444 130.097 199.422 130.085 199.402 130.068C199.382 130.052 199.365 130.031 199.353 130.009C199.341 129.986 199.333 129.961 199.331 129.935C199.329 129.909 199.331 129.883 199.339 129.858C199.346 129.833 199.359 129.81 199.375 129.79C199.392 129.77 199.412 129.754 199.435 129.742C199.457 129.73 199.482 129.722 199.508 129.72C199.534 129.717 199.56 129.72 199.584 129.727L203.47 130.921C203.516 130.935 203.555 130.964 203.58 131.004C203.606 131.044 203.616 131.093 203.609 131.14C203.602 131.187 203.578 131.23 203.542 131.26C203.506 131.291 203.46 131.308 203.412 131.307Z" fill="#000032"/>
<path d="M204.901 128.635C204.885 128.636 204.869 128.634 204.853 128.63C203.228 128.229 201.6 127.749 200.018 127.203C199.993 127.195 199.97 127.182 199.95 127.165C199.93 127.148 199.914 127.127 199.902 127.104C199.89 127.081 199.883 127.055 199.881 127.029C199.88 127.003 199.883 126.976 199.892 126.951C199.9 126.927 199.913 126.904 199.931 126.884C199.948 126.865 199.97 126.849 199.993 126.837C200.017 126.826 200.042 126.82 200.069 126.819C200.095 126.817 200.121 126.821 200.145 126.831C201.717 127.368 203.333 127.849 204.947 128.247C204.994 128.258 205.035 128.286 205.063 128.326C205.09 128.365 205.103 128.414 205.097 128.462C205.091 128.51 205.068 128.554 205.032 128.586C204.996 128.618 204.949 128.636 204.901 128.635Z" fill="#000032"/>
<path d="M193.535 82.916C193.267 83.7727 193.635 84.7334 193.604 85.6045C193.572 86.4756 193.138 87.4219 193.33 88.2805C193.52 89.1247 194.304 89.7565 194.691 90.5469C195.067 91.3122 195.092 92.3509 195.636 93.0365C196.16 93.697 197.128 93.9201 197.793 94.4784C198.433 95.0161 198.841 95.958 199.597 96.3765C200.32 96.7771 201.303 96.6122 202.12 96.8829C202.938 97.1535 203.64 97.8767 204.457 97.9852C205.308 98.099 206.176 97.5783 207 97.5263C207.857 97.4716 208.769 97.8713 209.57 97.6491C210.401 97.4188 211.012 96.5907 211.752 96.1937C212.516 95.785 213.511 95.7456 214.145 95.1703C214.778 94.5949 214.968 93.5679 215.442 92.8339C215.917 92.1 216.755 91.5515 217.023 90.6948C217.291 89.838 216.924 88.8773 216.955 88.0062C216.987 87.1352 217.421 86.1888 217.223 85.3303C217.034 84.4861 216.25 83.8552 215.862 83.0647C215.487 82.2985 215.462 81.2598 214.918 80.5743C214.394 79.9138 213.425 79.6906 212.76 79.1323C212.121 78.5946 211.712 77.6527 210.957 77.2342C210.233 76.8336 209.252 76.9985 208.433 76.7279C207.615 76.4572 206.914 75.734 206.096 75.6256C205.245 75.5118 204.379 76.0325 203.555 76.0853C202.698 76.14 201.784 75.7394 200.984 75.9617C200.152 76.192 199.542 77.02 198.802 77.417C198.039 77.8266 197.043 77.8651 196.41 78.4405C195.776 79.0158 195.586 80.0428 195.111 80.7768C194.637 81.5108 193.804 82.0592 193.535 82.916Z" fill="#000032"/>
<path d="M197.604 102.264L198.36 106.579C198.48 107.262 198.192 107.952 197.604 108.394C198.693 111.46 203.408 111.326 208.167 107.994L207.669 107.606C206.902 107.024 206.381 106.173 206.21 105.224L205.232 99.4184C205.232 99.4184 203.559 96.8957 197.604 102.264Z" fill="white"/>
<path d="M197.602 108.591C197.56 108.592 197.518 108.58 197.484 108.555C197.449 108.531 197.424 108.496 197.41 108.456C197.397 108.416 197.397 108.372 197.41 108.332C197.424 108.292 197.449 108.257 197.484 108.233C197.737 108.052 197.934 107.804 198.054 107.518C198.175 107.231 198.213 106.916 198.165 106.609L197.408 102.294C197.403 102.261 197.406 102.227 197.416 102.196C197.427 102.165 197.446 102.137 197.471 102.115C200.934 98.9932 202.994 98.5057 204.12 98.649C205.025 98.7638 205.38 99.2853 205.395 99.3068C205.41 99.3303 205.42 99.3565 205.425 99.3839L206.403 105.189C206.565 106.09 207.06 106.896 207.788 107.448L208.286 107.836C208.327 107.868 208.354 107.915 208.361 107.967C208.367 108.019 208.353 108.071 208.321 108.113C208.289 108.154 208.242 108.181 208.19 108.187C208.138 108.194 208.086 108.18 208.045 108.148L207.547 107.76C206.739 107.147 206.192 106.25 206.014 105.25L205.045 99.4932C204.966 99.4036 204.674 99.107 204.047 99.0335C203.016 98.9125 201.098 99.392 197.815 102.331L198.553 106.543C198.613 106.922 198.568 107.31 198.421 107.665C198.273 108.019 198.031 108.326 197.72 108.55C197.686 108.576 197.645 108.591 197.602 108.591Z" fill="#000032"/>
<path d="M194.987 96.448C195.197 95.0965 195.806 92.589 196.797 90.5332C198.297 92.5944 201.652 91.9035 201.51 91.7206C203.319 94.0444 206.419 93.2809 206.419 93.2809C206.419 93.2809 205.564 94.6538 204.989 95.5634C205.543 95.5831 206.084 95.2516 206.627 95.36C207.352 95.5043 207.714 96.3736 207.644 97.112C207.603 97.5624 207.45 97.9955 207.201 98.372C206.951 98.7486 206.611 99.0568 206.213 99.269C205.814 99.4811 205.37 99.5905 204.919 99.5872C204.468 99.584 204.024 99.4682 203.629 99.2503C202.718 100.701 201.267 101.874 199.581 102.144C197.894 102.414 196.006 101.628 195.256 100.089C194.712 98.9806 194.797 97.6712 194.987 96.448Z" fill="white"/>
<path d="M198.902 102.398C197.28 102.398 195.745 101.533 195.082 100.179C194.499 98.988 194.61 97.6097 194.795 96.4151C194.98 95.2205 195.574 92.6189 196.622 90.4474C196.637 90.4169 196.659 90.3908 196.687 90.3715C196.715 90.3522 196.748 90.3404 196.781 90.3372C196.816 90.3332 196.85 90.3385 196.882 90.3526C196.913 90.3666 196.94 90.3888 196.96 90.417C198.23 92.1591 200.925 91.8034 201.344 91.625C201.356 91.602 201.374 91.5818 201.395 91.5659C201.415 91.5499 201.438 91.5381 201.463 91.5312C201.488 91.5243 201.514 91.5223 201.54 91.5255C201.565 91.5287 201.59 91.5369 201.613 91.5496C201.635 91.5624 201.655 91.5795 201.671 91.5999C203.378 93.7929 206.347 93.0965 206.377 93.0894C206.415 93.0803 206.455 93.0827 206.491 93.0962C206.528 93.1098 206.56 93.1339 206.582 93.1655C206.605 93.1971 206.618 93.2349 206.62 93.274C206.622 93.313 206.612 93.3517 206.591 93.3851C206.591 93.3851 205.926 94.4542 205.374 95.3307C205.474 95.311 205.577 95.2859 205.682 95.259C205.999 95.1801 206.327 95.0977 206.671 95.1694C207.506 95.3352 207.922 96.2986 207.846 97.1338C207.803 97.601 207.648 98.0509 207.394 98.4455C207.141 98.84 206.797 99.1677 206.39 99.4007C205.984 99.6338 205.528 99.7654 205.06 99.7845C204.593 99.8036 204.128 99.7096 203.704 99.5105C202.679 101.061 201.202 102.09 199.616 102.341C199.38 102.379 199.141 102.398 198.902 102.398ZM196.847 90.9045C195.895 92.9729 195.359 95.3531 195.18 96.4787C195.001 97.6097 194.897 98.9127 195.431 100.005C196.117 101.405 197.849 102.224 199.548 101.953C201.068 101.71 202.497 100.687 203.462 99.1484C203.489 99.1062 203.53 99.0757 203.579 99.0631C203.627 99.0504 203.679 99.0566 203.723 99.0803C204.089 99.2822 204.5 99.3894 204.919 99.3923C205.337 99.3953 205.75 99.2938 206.119 99.0971C206.488 98.9004 206.803 98.6146 207.035 98.2654C207.267 97.9163 207.409 97.5148 207.447 97.0971C207.508 96.45 207.196 95.6775 206.588 95.5565C206.33 95.5055 206.058 95.5727 205.77 95.6462C205.514 95.7223 205.249 95.7621 204.982 95.7645C204.947 95.7631 204.914 95.7527 204.884 95.7343C204.855 95.7158 204.831 95.6899 204.815 95.6592C204.799 95.6286 204.791 95.5941 204.792 95.5594C204.793 95.5247 204.804 95.491 204.822 95.4615C205.21 94.8477 205.726 94.0214 206.02 93.55C205.094 93.6629 202.928 93.7068 201.476 91.996C201.26 92.0727 201.034 92.1212 200.806 92.1403C199.527 92.2927 197.861 92.0373 196.843 90.9045H196.847Z" fill="#000032"/>
<path d="M74.4568 125.761C75.9118 125.761 77.0914 124.576 77.0914 123.114C77.0914 121.652 75.9118 120.467 74.4568 120.467C73.0018 120.467 71.8223 121.652 71.8223 123.114C71.8223 124.576 73.0018 125.761 74.4568 125.761Z" fill="#FFECE3"/>
<path d="M82.1443 125.761C83.5993 125.761 84.7789 124.576 84.7789 123.114C84.7789 121.652 83.5993 120.467 82.1443 120.467C80.6893 120.467 79.5098 121.652 79.5098 123.114C79.5098 124.576 80.6893 125.761 82.1443 125.761Z" fill="#FFECE3"/>
<path d="M89.8318 125.761C91.2868 125.761 92.4664 124.576 92.4664 123.114C92.4664 121.652 91.2868 120.467 89.8318 120.467C88.3768 120.467 87.1973 121.652 87.1973 123.114C87.1973 124.576 88.3768 125.761 89.8318 125.761Z" fill="#FFECE3"/>
<path d="M110.823 123.312H95.22C95.1679 123.312 95.1179 123.291 95.081 123.254C95.0441 123.217 95.0234 123.167 95.0234 123.115C95.0234 123.062 95.0441 123.012 95.081 122.975C95.1179 122.938 95.1679 122.917 95.22 122.917H110.626V109.433C110.626 109.381 110.647 109.331 110.684 109.294C110.721 109.257 110.771 109.236 110.823 109.236C110.875 109.236 110.925 109.257 110.962 109.294C110.999 109.331 111.019 109.381 111.019 109.433V123.114C111.02 123.14 111.015 123.165 111.005 123.189C110.995 123.214 110.981 123.235 110.962 123.254C110.944 123.272 110.922 123.287 110.898 123.297C110.874 123.307 110.849 123.312 110.823 123.312Z" fill="#000032"/>
<path d="M120.161 127.849H99.4036C99.3515 127.849 99.3015 127.829 99.2646 127.792C99.2277 127.755 99.207 127.705 99.207 127.652C99.207 127.6 99.2277 127.55 99.2646 127.513C99.3015 127.476 99.3515 127.455 99.4036 127.455H120.161C120.213 127.455 120.263 127.476 120.3 127.513C120.337 127.55 120.358 127.6 120.358 127.652C120.358 127.705 120.337 127.755 120.3 127.792C120.263 127.829 120.213 127.849 120.161 127.849Z" fill="#000032"/>
<path d="M112.731 132.392H79.5091C79.457 132.392 79.407 132.372 79.3701 132.335C79.3332 132.298 79.3125 132.247 79.3125 132.195C79.3125 132.143 79.3332 132.093 79.3701 132.056C79.407 132.019 79.457 131.998 79.5091 131.998H112.731C112.784 131.998 112.834 132.019 112.87 132.056C112.907 132.093 112.928 132.143 112.928 132.195C112.928 132.247 112.907 132.298 112.87 132.335C112.834 132.372 112.784 132.392 112.731 132.392Z" fill="#000032"/>
</svg>
