<svg width="43" height="46" viewBox="0 0 43 46" fill="none" xmlns="http://www.w3.org/2000/svg">
<path d="M0.798828 18.9616V17.0384H5.79883C7.01679 13.9423 8.95349 11.4006 11.609 9.41343C14.2644 7.42627 17.2507 6.21954 20.5681 5.79325L17.0825 2.34131L18.4575 0.966309L22.3036 4.94231C22.5601 5.19873 22.7211 5.48798 22.7868 5.81006C22.8525 6.13218 22.8293 6.44068 22.7171 6.73556C22.6049 7.03043 22.4342 7.27722 22.2051 7.47593C21.9759 7.67468 21.6979 7.78366 21.371 7.80287C17.9222 7.90866 14.9719 8.97516 12.52 11.0024C10.0681 13.0296 8.38856 15.4215 7.48152 18.1779L7.25077 18.9616H0.798828ZM30.2219 23C30.2219 21.2307 30.6418 19.5761 31.4815 18.0361C32.3213 16.496 33.4479 15.4118 34.8613 14.7836C33.746 13.1843 32.5008 11.851 31.1258 10.7836C29.7508 9.71633 28.1931 8.91666 26.4527 8.38462L26.9863 6.55287C29.1979 7.20671 31.1089 8.19068 32.7195 9.50481C34.3301 10.8189 35.7396 12.5304 36.9479 14.6394C38.4447 15.0048 39.6851 15.9832 40.6691 17.5745C41.653 19.1659 42.145 20.9744 42.145 23C42.145 24.875 41.6955 26.6058 40.7965 28.1923C39.8974 29.7789 38.6146 30.851 36.9479 31.4087C35.8357 33.4118 34.4319 35.0969 32.7363 36.4639C31.0408 37.8309 29.0873 38.8414 26.8758 39.4952L26.3421 37.6634C28.1658 37.0897 29.7684 36.2684 31.1498 35.1995C32.5312 34.1306 33.7684 32.8029 34.8613 31.2164C33.528 30.5272 32.4214 29.4695 31.5416 28.0432C30.6618 26.617 30.2219 24.9359 30.2219 23ZM36.1835 29.5384C37.2091 29.5384 38.1386 28.8613 38.9719 27.5072C39.8052 26.153 40.2219 24.6506 40.2219 23C40.2219 21.2852 39.8132 19.7668 38.996 18.4447C38.1787 17.1226 37.2412 16.4616 36.1835 16.4616C35.1258 16.4616 34.1883 17.1226 33.371 18.4447C32.5537 19.7668 32.145 21.2852 32.145 23C32.145 24.6506 32.5617 26.153 33.395 27.5072C34.2283 28.8613 35.1578 29.5384 36.1835 29.5384ZM18.4815 45.1058L17.1065 43.7164L20.6642 40.1587C17.3469 39.7644 14.3581 38.5737 11.6979 36.5866C9.0376 34.5993 7.10329 32.0577 5.89495 28.9616H0.895016V27.0384H7.34689L7.5777 27.8221C8.48475 30.5785 10.1538 32.9704 12.5849 34.9976C15.016 37.0248 17.9559 38.0913 21.4046 38.1971C21.7636 38.2163 22.0601 38.3253 22.294 38.5241C22.528 38.7228 22.7011 38.9696 22.8133 39.2644C22.9254 39.5593 22.9487 39.8654 22.883 40.1827C22.8172 40.5 22.6562 40.7869 22.3998 41.0433L18.4815 45.1058Z" fill="#5FA2FB"/>
</svg>
