<svg width="40" height="40" viewBox="0 0 40 40" fill="none" xmlns="http://www.w3.org/2000/svg">
<path d="M3.4615 40C2.52642 40 1.71573 39.6569 1.02944 38.9706C0.343145 38.2843 0 37.4736 0 36.5385V3.4615C0 2.52642 0.343145 1.71573 1.02944 1.02944C1.71573 0.343146 2.52642 0 3.4615 0H36.5385C37.4736 0 38.2843 0.343146 38.9706 1.02944C39.6569 1.71573 40 2.52642 40 3.4615V36.5385C40 37.4736 39.6569 38.2843 38.9706 38.9706C38.2843 39.6569 37.4736 40 36.5385 40H3.4615ZM20.9616 20.9616V38.0769H36.5385C36.9872 38.0769 37.3558 37.9327 37.6442 37.6442C37.9327 37.3558 38.0769 36.9872 38.0769 36.5385V20.9616H20.9616ZM20.9616 19.0384H38.0769V3.4615C38.0769 3.01279 37.9327 2.64421 37.6442 2.35575C37.3558 2.06729 36.9872 1.92306 36.5385 1.92306H20.9616V19.0384ZM19.0384 19.0384V1.92306H3.4615C3.01279 1.92306 2.64421 2.06729 2.35575 2.35575C2.06729 2.64421 1.92306 3.01279 1.92306 3.4615V19.0384H19.0384ZM19.0384 20.9616H1.92306V36.5385C1.92306 36.9872 2.06729 37.3558 2.35575 37.6442C2.64421 37.9327 3.01279 38.0769 3.4615 38.0769H19.0384V20.9616Z" fill="#56566D"/>
</svg>
