<svg width="44" height="46" viewBox="0 0 44 46" fill="none" xmlns="http://www.w3.org/2000/svg">
<path d="M0.0292969 45.4038L4.01967 25.4519H39.9332L43.9236 45.4038H0.0292969ZM1.23123 2.42303V0.499967H8.01011V2.42303H1.23123ZM2.4428 43.4807H21.0389V36.4615H3.86586L2.4428 43.4807ZM6.72161 15.6923L5.33223 14.3653L10.1159 9.58165L11.5053 10.9086L6.72161 15.6923ZM4.23123 34.5384H21.0389V27.375H5.6543L4.23123 34.5384ZM22.0005 9.97109C19.3659 9.97109 17.1383 9.04561 15.3178 7.19465C13.4973 5.3437 12.5517 3.09611 12.4812 0.451904H14.4044C14.4652 2.56195 15.2299 4.35547 16.6984 5.83247C18.167 7.30951 19.9362 8.04803 22.0061 8.04803C24.0761 8.04803 25.8434 7.30951 27.3082 5.83247C28.7729 4.35547 29.5357 2.56195 29.5966 0.451904H31.5197C31.4492 3.09611 30.5037 5.3437 28.6832 7.19465C26.8627 9.04561 24.6351 9.97109 22.0005 9.97109ZM21.0389 20.9807V14.2019H22.962V20.9807H21.0389ZM22.962 43.4807H41.5101L40.087 36.4615H22.962V43.4807ZM22.962 34.5384H39.7217L38.2985 27.375H22.962V34.5384ZM37.3755 15.7259L32.5437 10.8942L33.8707 9.56728L38.7649 14.3365L37.3755 15.7259ZM35.9909 2.42303V0.499967H42.7697V2.42303H35.9909Z" fill="#A94CD3"/>
</svg>
