<svg width="44" height="50" viewBox="0 0 44 50" fill="none" xmlns="http://www.w3.org/2000/svg">
<path d="M34.7604 49.7356C32.6097 49.7356 30.7716 49.1058 29.246 47.8462C27.7203 46.5866 26.5569 44.8782 25.7556 42.7212C25.0505 40.8847 24.2516 39.3806 23.359 38.2091C22.4663 37.0377 20.911 35.5561 18.6931 33.7644C16.0713 31.6843 14.1482 29.4183 12.9238 26.9664C11.6995 24.5144 11.0873 21.657 11.0873 18.3943C11.0873 13.7468 12.5985 9.90944 15.621 6.88219C18.6434 3.85494 22.4783 2.34131 27.1258 2.34131C31.5296 2.34131 35.2259 3.68827 38.2147 6.38219C41.2035 9.0761 42.8662 12.5417 43.2027 16.7789H41.2796C40.9431 13.1122 39.4503 10.1098 36.8013 7.77163C34.1522 5.4335 30.9271 4.26444 27.1258 4.26444C23.1514 4.26444 19.8052 5.62581 17.0873 8.34856C14.3694 11.0713 13.0104 14.4199 13.0104 18.3943C13.0104 21.4263 13.6819 24.1322 15.0248 26.512C16.3677 28.8918 18.2491 31.0064 20.669 32.8558C22.3902 34.1603 23.7323 35.4648 24.6955 36.7693C25.6586 38.0737 26.5777 39.7516 27.4527 41.8029C28.2251 43.649 29.2003 45.1122 30.3782 46.1923C31.5561 47.2724 33.0168 47.8125 34.7604 47.8125C36.2828 47.8125 37.6314 47.3285 38.8061 46.3606C39.9807 45.3926 40.7684 44.1795 41.169 42.7211H43.1883C42.7876 44.7404 41.8117 46.4143 40.2604 47.7428C38.7091 49.0713 36.8758 49.7356 34.7604 49.7356ZM7.37095 35.6827C5.28441 33.3141 3.66743 30.6467 2.52002 27.6803C1.37256 24.7139 0.798828 21.5833 0.798828 18.2884C0.798828 15.0032 1.36533 11.8485 2.49833 8.8245C3.63137 5.80046 5.25558 3.12979 7.37095 0.8125L8.7892 2.01444C6.81487 4.25481 5.31008 6.754 4.27483 9.512C3.23958 12.27 2.72195 15.1955 2.72195 18.2884C2.72195 21.3077 3.24999 24.1963 4.30608 26.9543C5.36216 29.7124 6.85654 32.2164 8.7892 34.4664L7.37095 35.6827ZM27.1258 23.4856C25.6931 23.4856 24.4863 22.9952 23.5056 22.0144C22.5248 21.0336 22.0344 19.8269 22.0344 18.3943C22.0344 16.9615 22.5248 15.742 23.5056 14.7356C24.4863 13.7291 25.6931 13.2259 27.1258 13.2259C28.5585 13.2259 29.77 13.7291 30.7604 14.7356C31.7508 15.742 32.246 16.9615 32.246 18.3943C32.246 19.8269 31.7508 21.0336 30.7604 22.0144C29.77 22.9952 28.5585 23.4856 27.1258 23.4856Z" fill="#19CBB1"/>
</svg>
